<svg width="13" height="15" viewBox="0 0 13 15" fill="none" xmlns="http://www.w3.org/2000/svg" role="presentation"><path d="M10.5837 3.61C10.77 4.45908 10.7079 5.34129 10.4263 6.16137C10.3931 6.26078 10.3559 6.36018 10.3186 6.45958C9.87954 7.60273 9.26241 8.65476 8.5583 9.6488C7.95773 10.502 7.31575 11.3221 6.6779 12.1505C6.44596 12.4528 6.06077 12.457 5.82054 12.1629C4.56971 10.6428 3.41414 9.0648 2.53607 7.29623C2.22543 6.66668 1.96035 6.01641 1.84024 5.32058C1.65386 4.23542 1.87752 3.22481 2.44909 2.29704C3.16563 1.14147 4.20937 0.441498 5.55132 0.209555C7.80862 -0.179778 10.0825 1.35684 10.5837 3.59758C10.5837 3.60586 10.5837 3.61 10.5837 3.61ZM8.06128 4.62061C8.05713 3.62243 7.24119 2.80649 6.24715 2.80234C5.24483 2.80234 4.4206 3.63485 4.43303 4.63303C4.44131 5.6395 5.24897 6.43887 6.25544 6.43473C7.25362 6.43473 8.06542 5.62293 8.06128 4.62061Z" fill="#252525"/><path d="M2.73902 13.9025C2.14259 13.7202 1.57102 13.4883 1.08643 13.0865C0.784072 12.838 0.556271 12.5357 0.477577 12.1422C0.386456 11.67 0.55213 11.2765 0.858625 10.9369C1.23967 10.5186 1.73255 10.2701 2.25028 10.0671C2.42424 9.99671 2.5982 9.93873 2.77629 9.88488C3.0538 9.80204 3.3313 9.94701 3.41 10.2038C3.49283 10.4689 3.35201 10.734 3.07865 10.8334C2.80529 10.9369 2.52364 11.028 2.25857 11.1523C2.05562 11.2475 1.86509 11.3801 1.68699 11.5168C1.37635 11.7611 1.37221 11.9931 1.66214 12.2664C1.9852 12.5688 2.38696 12.7386 2.797 12.8836C3.60466 13.1652 4.44545 13.2978 5.29867 13.3557C6.0732 13.4096 6.84772 13.4054 7.62224 13.3185C8.58315 13.2149 9.53163 13.041 10.3973 12.5688C10.5754 12.4694 10.7452 12.341 10.8901 12.2002C11.1014 11.9931 11.1014 11.7736 10.8736 11.5872C10.6623 11.4091 10.4263 11.2558 10.1778 11.1316C9.94581 11.0115 9.69316 10.9328 9.44465 10.8458C9.15058 10.7422 8.99733 10.4854 9.08017 10.2079C9.163 9.93873 9.44879 9.7979 9.74286 9.89317C10.3807 10.0961 10.9978 10.3446 11.499 10.8044C11.7558 11.0405 11.9463 11.318 12.0126 11.6659C12.0954 12.0759 11.9712 12.4321 11.7268 12.7552C11.4741 13.0907 11.1387 13.3185 10.77 13.5048C10.0328 13.8818 9.2417 14.0971 8.42576 14.2131C8.41747 14.2131 8.41333 14.2131 8.40505 14.2172C6.92227 14.4243 5.41464 14.3995 3.93187 14.1634C3.49283 14.0888 3.06622 14.0019 2.73902 13.9025Z" fill="#FF993C"/></svg>