<?xml version="1.0" encoding="utf-8"?>
<!-- Generator: Adobe Illustrator 27.0.0, SVG Export Plug-In . SVG Version: 6.00 Build 0)  -->
<svg version="1.1" id="Layer_1" xmlns="http://www.w3.org/2000/svg" xmlns:xlink="http://www.w3.org/1999/xlink" x="0px" y="0px"
	 viewBox="0 0 104 130" style="enable-background:new 0 0 104 130;" xml:space="preserve">
<style type="text/css">
	.st0{fill:#FFA14A;}
</style>
<g>
	<g id="Path_13">
		<path class="st0" d="M92.2,58.2c-0.2,0-0.3,0-0.5-0.1c-1.1-0.3-1.7-1.4-1.4-2.5l0.5-1.7c1.8-7,1.7-14.4-0.4-21.4
			C84,11.4,61.7-0.6,40.6,5.7C19.4,12,7.4,34.3,13.7,55.4c0.3,1.1-0.3,2.2-1.3,2.5c-1.1,0.3-2.2-0.3-2.5-1.3
			C2.9,33.3,16.2,8.8,39.4,1.8c23.3-6.9,47.8,6.4,54.7,29.6c2.3,7.7,2.4,15.8,0.4,23.6l-0.5,1.7C93.9,57.6,93.1,58.2,92.2,58.2z"/>
	</g>
	<path id="Path_14" d="M53.8,48.6c-0.4-0.4-0.9-0.6-1.4-0.6h-0.8c-0.5,0-1.1,0.2-1.4,0.6l-6.5,6.7l-6.5-6.7
		c-0.4-0.4-0.9-0.6-1.4-0.6h-0.8c-0.5,0-1.1,0.2-1.4,0.6L27,55.3l-6.5-6.7c-0.4-0.4-0.9-0.6-1.4-0.6h-0.8c-0.5,0-1.1,0.2-1.4,0.6
		l-6.5,6.7l-6.8-6.8C3.2,48.2,2.7,48,2.1,48H2c-1.1,0-2,0.9-2,2v70c0,5.5,4.5,10,10,10h84c5.5,0,10-4.5,10-10V50c0-1.1-0.9-2-2-2
		h-0.1c-0.5,0-1,0.2-1.4,0.6l-6.8,6.8l-6.5-6.7c-0.4-0.4-0.9-0.6-1.4-0.6h-0.8c-0.5,0-1.1,0.2-1.4,0.6L77,55.3l-6.5-6.7
		c-0.4-0.4-0.9-0.6-1.4-0.6h-0.8c-0.5,0-1.1,0.2-1.4,0.6l-6.5,6.7L53.8,48.6z M95.1,59.6l4.9-4.9V120c0,3.3-2.7,6-6,6H10
		c-3.3,0-6-2.7-6-6V54.7l4.9,4.9c0.8,0.8,2,0.8,2.8,0c0,0,0,0,0,0l6.9-7.1l6.9,7.1c0.8,0.8,2,0.8,2.8,0.1c0,0,0,0,0.1-0.1l6.9-7.1
		l6.9,7.1c0.8,0.8,2,0.8,2.8,0.1c0,0,0,0,0.1-0.1l6.9-7.2l6.9,7.1c0.8,0.8,2,0.8,2.8,0.1c0,0,0,0,0.1-0.1l6.9-7.1l6.9,7.1
		c0.8,0.8,2,0.8,2.8,0.1c0,0,0,0,0.1-0.1l6.9-7.1l6.9,7.1C93,60.4,94.3,60.4,95.1,59.6C95.1,59.6,95.1,59.6,95.1,59.6L95.1,59.6z"/>
	<g id="Path_15">
		<path d="M25,39c-0.8,0-1.6-0.6-1.7-1.4c-0.2-1,0.4-1.9,1.4-2.1l3.7-0.7c1-0.2,1.9,0.4,2.1,1.4c0.2,1-0.4,1.9-1.4,2.1L25.3,39
			C25.2,39,25.1,39,25,39z"/>
	</g>
	<g id="Path_16">
		<path d="M47.1,43c-0.5,0-1-0.2-1.3-0.6c-0.6-0.7-0.6-1.8,0.2-2.5l2.8-2.5c0.7-0.6,1.8-0.6,2.5,0.2c0.6,0.7,0.6,1.8-0.2,2.5
			l-2.8,2.5C47.9,42.8,47.5,43,47.1,43z"/>
	</g>
	<g id="Path_17">
		<path d="M77,43.2c-0.6,0-1.1-0.2-1.5-0.7l-2.8-3.2c-0.7-0.8-0.6-2.1,0.2-2.8c0.8-0.7,2.1-0.6,2.8,0.2l2.8,3.2
			c0.7,0.8,0.6,2.1-0.2,2.8C77.9,43,77.5,43.2,77,43.2z"/>
	</g>
	<g id="Path_18">
		<path d="M38.8,24.2c-0.5,0-1-0.2-1.4-0.7c-0.6-0.8-0.5-1.9,0.3-2.5l3-2.3c0.8-0.6,1.9-0.5,2.5,0.3c0.6,0.8,0.5,1.9-0.3,2.5l-3,2.3
			C39.6,24.1,39.2,24.2,38.8,24.2z"/>
	</g>
	<g id="Path_19">
		<path d="M63.2,26.4c0,0-0.1,0-0.1,0l-3.7-0.2c-1-0.1-1.7-0.9-1.7-1.9c0.1-1,0.9-1.7,1.9-1.7l3.7,0.2c1,0.1,1.7,0.9,1.7,1.9
			C64.9,25.7,64.1,26.4,63.2,26.4z"/>
	</g>
</g>
</svg>
