<svg width="9" height="12" viewBox="0 0 9 12" fill="none" xmlns="http://www.w3.org/2000/svg">
<path d="M5.17929 0.939178C5.37985 0.967829 5.60905 0.996479 5.8096 1.05378C7.35671 1.39758 8.61732 2.74414 8.87518 4.31991C9.01843 5.23671 8.87518 6.12487 8.53137 6.98438C8.13027 8.01579 7.52861 8.90394 6.86966 9.76345C6.35395 10.3938 5.8096 10.9954 5.20794 11.5684C5.00739 11.769 4.83549 11.769 4.63494 11.5684C3.51758 10.5084 2.51482 9.3337 1.76992 7.98714C1.36881 7.27088 1.08231 6.52597 0.93906 5.69512C0.595257 3.4031 2.14237 1.39758 4.23384 1.02513C4.37709 0.996479 4.52034 0.996479 4.63494 0.967829C4.83549 0.939179 5.00739 0.939178 5.17929 0.939178ZM7.15616 4.92156C7.09886 3.66095 6.06745 2.68684 4.86414 2.74414C3.60353 2.80144 2.62942 3.83285 2.68672 5.03616C2.74402 6.26812 3.77543 7.27088 4.97874 7.21358C6.23935 7.15628 7.21346 6.12487 7.15616 4.92156Z" fill="white"/>
</svg>
