<svg width="26" height="19" viewBox="0 0 26 19" fill="none" xmlns="http://www.w3.org/2000/svg" role="presentation"><path d="M25.0528 12.6975C24.9282 12.5154 24.8516 12.295 24.8036 12.0841C24.564 11.0011 23.9794 10.2153 22.9444 9.80317C22.5898 9.65942 22.2256 9.54441 21.8614 9.43899C21.6506 9.3719 21.526 9.30482 21.5356 9.03647C21.5451 8.49978 21.3631 8.00142 21.0564 7.56056C20.7593 7.13888 20.4718 6.71719 20.1842 6.2955C19.6476 5.50963 19.1109 4.72376 18.5646 3.9283C19.2067 3.42994 19.5134 2.82616 19.2738 2.04029C19.1492 1.63777 19.015 1.24483 18.8425 0.871065C18.7658 0.708141 18.5742 0.506881 18.4208 0.497297C17.5008 0.401459 16.5712 0.372707 15.8428 1.12024C15.699 1.264 15.4786 1.35984 15.3923 1.52276C15.0665 2.12654 14.5394 2.17446 13.9452 2.13613C13.5618 2.11696 13.3414 2.35656 13.3414 2.69199C13.3318 3.04659 13.5714 3.26702 13.9644 3.28618C14.2135 3.29577 14.4531 3.28618 14.6544 3.28618C14.8461 3.77496 15.0282 4.19665 15.1815 4.6375C15.6607 5.97923 16.207 7.31138 16.5807 8.68187C16.9449 10.0044 16.6287 11.212 15.4786 12.1129C15.2103 12.3237 14.9419 12.4387 14.5969 12.41C14.204 12.3812 13.811 12.4004 13.4181 12.4004C12.6514 12.4004 11.9326 11.8349 11.7505 11.0874C11.5684 10.3207 11.7793 9.60191 11.9518 8.86396C11.9997 8.6627 12.0668 8.53811 12.2968 8.49019C12.5268 8.43269 12.7664 8.29852 12.9485 8.14517C13.5043 7.68515 13.7056 6.93762 13.466 6.26675C13.2168 5.56713 12.5843 5.11669 11.7793 5.10711C10.7154 5.09752 9.65165 5.10711 8.58784 5.10711C6.86276 5.10711 5.14726 5.09752 3.42217 5.10711C2.13794 5.08794 1.28498 6.16133 1.65875 7.3018C1.77376 7.64682 2.03252 7.9535 2.23378 8.27935C2.01335 8.73937 0.949551 9.93735 1.05497 9.9661C0.978302 10.244 0.853713 10.4836 0.844129 10.7424C0.79621 12.0458 0.757875 13.3396 0.748291 14.643C0.748291 14.988 0.987886 15.1701 1.35207 15.1797C1.75459 15.1893 2.15711 15.1797 2.5788 15.1797C2.68422 16.2435 3.07716 17.1348 3.82469 17.844C4.58181 18.5532 5.47311 18.927 6.50816 18.9461C7.34195 18.9653 8.11824 18.7353 8.80827 18.2657C9.88166 17.5277 10.4375 16.4927 10.5813 15.1893C10.7442 15.1893 10.8688 15.1893 11.003 15.1893C12.6801 15.1893 14.3477 15.1893 16.0249 15.1797C16.5903 15.1797 17.1558 15.1414 17.7595 15.1222C17.7691 15.2276 17.7691 15.3905 17.7979 15.5535C18.0566 17.1923 19.2738 18.4861 20.8839 18.8503C22.4844 19.2049 24.1232 18.5532 25.0528 17.1923C25.9633 15.8506 25.9633 14.068 25.0528 12.6975ZM21.1043 10.5315C21.133 10.4836 21.2576 10.4549 21.3151 10.474C21.8039 10.6465 22.3214 10.7903 22.7815 11.0203C23.069 11.1641 23.2894 11.4612 23.5769 11.7199H20.328C20.558 11.3462 20.8264 10.9341 21.1043 10.5315ZM3.19216 6.27633C3.31675 6.25716 3.45092 6.25716 3.5851 6.25716C6.23981 6.25716 8.88494 6.25716 11.5397 6.25716C12.1243 6.25716 12.4022 6.43926 12.3926 6.83219C12.383 7.21555 12.1243 7.38805 11.5205 7.38805C10.2075 7.38805 8.89453 7.38805 7.58155 7.38805C6.18231 7.38805 4.78307 7.38805 3.39342 7.38805C2.98132 7.38805 2.74172 7.17721 2.74172 6.84178C2.74172 6.53509 2.88548 6.32425 3.19216 6.27633ZM6.63275 17.7769C5.12809 17.7961 3.79594 16.6077 3.78636 15.2084H4.58181C4.61056 15.2947 4.62973 15.4001 4.65848 15.5055C4.89808 16.3393 5.66478 16.9335 6.53691 16.9623C7.3707 16.991 8.20449 16.4448 8.44409 15.611C8.55909 15.218 8.75077 15.1318 9.09579 15.1893C9.17246 15.1989 9.25871 15.1893 9.36413 15.1893C9.37372 16.5406 8.06074 17.7577 6.63275 17.7769ZM5.79896 15.1893H7.33237C7.22694 15.5726 6.99693 15.7547 6.62316 15.7739C6.22064 15.7931 5.97147 15.6205 5.79896 15.1893ZM17.7404 13.5121C17.5008 13.8763 17.1845 14.0392 16.7437 14.0392C11.9038 14.0392 7.06402 14.0392 2.21461 14.0392C2.11878 14.0392 2.03252 14.0392 1.96543 14.0392C1.96543 12.9946 1.88876 11.9979 1.9846 11.0203C2.08044 10.1003 2.64588 9.40065 3.41259 8.88313C3.72885 8.6627 4.0547 8.56686 4.44764 8.56686C6.41232 8.58603 8.36742 8.57645 10.3321 8.57645H10.725C10.6484 9.26648 10.5334 9.92776 10.5238 10.589C10.5046 11.9691 11.3576 13.1 12.6801 13.5217C12.8047 13.56 12.9389 13.56 13.0731 13.5696C13.6577 13.5696 14.2423 13.5504 14.8269 13.5792C15.2198 13.5984 15.5457 13.4834 15.862 13.2629C17.472 12.1608 18.1717 10.4932 17.7116 8.47102C17.472 7.43597 17.0791 6.42967 16.7245 5.41379C16.4753 4.71417 16.1686 4.02414 15.8715 3.28618C16.092 3.28618 16.2549 3.28618 16.4178 3.28618C16.8683 3.28618 17.1078 3.11368 17.1462 2.76866C17.1845 2.42364 16.9928 2.2128 16.5424 2.11696C16.8299 1.69527 17.3187 1.51318 17.7883 1.64735C17.8458 1.66652 17.8937 1.72402 17.9225 1.78153C17.9704 1.86778 17.9991 1.95404 18.0279 2.04987C18.2867 2.76866 18.2579 2.83575 17.52 3.03701C17.0312 3.17118 16.897 3.59287 17.2037 4.04331C18.1046 5.35629 19.0054 6.65968 19.9063 7.97267C20.5388 8.89271 20.5484 9.29523 19.9351 10.2249C19.1971 11.2982 18.4687 12.4004 17.7404 13.5121ZM24.2286 16.301C23.7015 17.269 22.8485 17.7481 22.0531 17.7769C19.5709 17.7769 18.2004 15.4289 19.2834 13.56C19.3792 13.3971 19.5517 13.2438 19.7242 13.1863C21.018 12.7071 22.3406 12.6879 23.6632 13.0713C23.8357 13.1192 24.0274 13.2725 24.1232 13.4259C24.7078 14.3459 24.7557 15.3234 24.2286 16.301Z" fill="white"/><path d="M23.7303 14.9593C23.7303 16.0614 22.8102 16.9719 21.7177 16.9527C20.6347 16.9335 19.7434 16.0326 19.7338 14.9497C19.7242 13.8284 20.6347 12.9467 21.7752 12.9562C22.8677 12.9658 23.7398 13.8571 23.7303 14.9593ZM21.7368 15.7739C22.2064 15.7739 22.5802 15.4097 22.5802 14.9497C22.5802 14.4992 22.1873 14.1063 21.7368 14.1063C21.2864 14.1159 20.9222 14.4705 20.9222 14.9305C20.903 15.4097 21.2576 15.7643 21.7368 15.7739Z" fill="white"/><rect x="1.72363" y="2.55554" width="7.30249" height="1.4596" rx="0.729802" fill="#FFA14A"/></svg>