<svg width="18" height="17" viewBox="0 0 18 17" fill="none" xmlns="http://www.w3.org/2000/svg" role="presentation"><path d="M17.1943 6.23048C16.7309 4.14713 15.5788 2.52724 13.8203 1.33613C12.7504 0.612812 11.5723 0.184015 10.2773 0.0800648C10.247 0.0757335 10.2166 0.0627397 10.1863 0.0540771C9.93944 0.0540771 9.68823 0.0540771 9.44134 0.0540771C9.43268 0.0627397 9.42402 0.0714023 9.41536 0.0757335C9.05153 0.214334 8.86961 0.487205 8.93025 0.816382C8.99089 1.14989 9.25077 1.34047 9.63192 1.35779C9.96976 1.37512 10.3119 1.38811 10.6454 1.45308C12.8457 1.86022 14.4396 3.08164 15.4315 5.08269C15.8603 5.94894 16.0422 6.87584 16.0552 7.83738C16.0595 8.16223 16.2804 8.41777 16.5923 8.47841C16.8955 8.53471 17.1943 8.35713 17.3113 8.05394C17.3243 8.02362 17.3373 7.99764 17.3503 7.96732C17.3503 7.72044 17.3503 7.46922 17.3503 7.22234C17.3026 6.88883 17.268 6.55532 17.1943 6.23048Z" fill="#FFA14A"/><path d="M11.4511 9.71282C11.1565 9.42263 10.784 9.42696 10.4895 9.71715C10.2556 9.94671 10.0131 10.1763 9.79218 10.4188C9.6709 10.5531 9.57994 10.5618 9.42835 10.4621C8.74401 10.0247 8.16362 9.47027 7.62654 8.86822C7.32335 8.53038 7.04182 8.17522 6.84258 7.76375C6.85557 7.74209 6.8599 7.73343 6.86423 7.73343C7.13277 7.46056 7.40564 7.19202 7.67418 6.91915C7.96871 6.62029 7.97304 6.23914 7.67851 5.94028C6.51773 4.7795 5.35695 3.61439 4.19184 2.4536C3.88432 2.14608 3.51183 2.15041 3.2043 2.45794C2.46366 3.19425 1.72301 3.93923 0.978029 4.67555C0.817772 4.83147 0.74414 5.01339 0.748471 5.24295C0.770128 6.32143 1.06899 7.33062 1.51078 8.30083C2.25576 9.94671 3.31692 11.3804 4.58165 12.6624C5.92868 14.0354 7.44029 15.1832 9.21179 15.9585C10.13 16.3613 11.0829 16.6255 12.0921 16.6559C12.3173 16.6645 12.5036 16.5909 12.6595 16.4306C13.4131 15.6727 14.1754 14.919 14.9291 14.161C15.2279 13.8622 15.2279 13.4854 14.9291 13.1865C13.7683 12.0257 12.6118 10.8693 11.4511 9.71282ZM13.4694 13.7842C12.9843 14.2693 12.4992 14.7544 12.0141 15.2395C11.9448 15.3088 11.8799 15.3435 11.7759 15.3348C11.0223 15.2655 10.3206 15.0316 9.64058 14.7198C7.8561 13.9012 6.34881 12.7014 5.02777 11.2634C4.11387 10.2672 3.33857 9.17141 2.77551 7.937C2.442 7.21368 2.20811 6.4557 2.09117 5.66741C2.06518 5.50715 2.0955 5.39021 2.22111 5.26893C2.7192 4.78816 3.19997 4.2944 3.69374 3.80063C4.57732 4.68421 5.44357 5.55047 6.33149 6.43838C6.13225 6.63762 5.92868 6.84985 5.70778 7.04476C5.42192 7.30463 5.36561 7.59916 5.50421 7.95432C5.72944 8.52605 6.07594 9.01549 6.46576 9.48326C7.12411 10.2716 7.8561 10.9819 8.72668 11.532C8.98223 11.6965 9.26809 11.8222 9.55396 11.9348C9.8225 12.043 10.0737 11.9694 10.2773 11.7615C10.5025 11.532 10.7321 11.3024 10.9486 11.0858C11.8192 11.9564 12.6811 12.8183 13.5561 13.6933C13.5387 13.7106 13.5041 13.7496 13.4694 13.7842Z" fill="white"/><path d="M13.4608 7.80273C13.4694 8.20121 13.7423 8.48274 14.1105 8.48274C14.4873 8.48274 14.7688 8.18388 14.7515 7.78107C14.7385 7.47788 14.7125 7.17903 14.6605 6.88017C14.2491 4.50663 12.1094 2.68749 9.69256 2.64418C9.61026 2.64851 9.52797 2.64418 9.45001 2.65717C9.1165 2.71781 8.89127 3.01234 8.91726 3.34585C8.94325 3.67502 9.21179 3.91324 9.55396 3.94356C9.91345 3.97821 10.2816 3.99987 10.6238 4.09516C12.3086 4.57593 13.4218 6.04423 13.4608 7.80273Z" fill="#FFA14A"/><path d="M8.92159 5.87531C8.91293 6.25213 9.19013 6.525 9.60593 6.54233C10.3119 6.56832 10.8403 7.10972 10.8663 7.82872C10.8837 8.2142 11.1565 8.4914 11.5247 8.48707C11.8928 8.48274 12.1657 8.18821 12.1657 7.7984C12.1614 6.43838 11.0136 5.27326 9.65358 5.24728C9.22911 5.23428 8.93025 5.49416 8.92159 5.87531Z" fill="#FFA14A"/></svg>