<svg xmlns="http://www.w3.org/2000/svg" width="29" height="30" viewBox="0 0 29 30"><path d="M25.22,9a.47.47,0,0,1-.11-.25,46.32,46.32,0,0,0-.71-5.1.85.85,0,0,0-.25-.44A.88.88,0,0,0,23.69,3l-2.44-.29h-.06a.48.48,0,0,0-.36.15.51.51,0,0,0-.15.37V4.1h0A34.12,34.12,0,0,0,15.71.37,2.18,2.18,0,0,0,14.5,0a2.08,2.08,0,0,0-1.21.37A40,40,0,0,0,.08,14.52a.85.85,0,0,0-.08.35.82.82,0,0,0,.18.52.81.81,0,0,0,.45.29l2.42.48a.85.85,0,0,1,.41.26.87.87,0,0,1,.2.45c0,.43.47,10,1,12.51a.8.8,0,0,0,.3.45.82.82,0,0,0,.5.17h0c1.43,0,2.71-.06,4.11-.08h.11a.27.27,0,0,0,.27-.27c0-.84-.17-2.75-.27-4.77v-.16a.61.61,0,0,0-.07-.24.58.58,0,0,0-.17-.18,2.62,2.62,0,0,1-1.27-2.12c-.13-3.36-.2-7.24,0-10.28a.52.52,0,0,1,.16-.33.5.5,0,0,1,.33-.12.48.48,0,0,1,.48.47v0c-.12,2-.13,4.43-.08,6.79a.54.54,0,0,0,0,.22.64.64,0,0,0,.13.19.76.76,0,0,0,.19.12.57.57,0,0,0,.22,0,.54.54,0,0,0,.22,0,.5.5,0,0,0,.19-.13.62.62,0,0,0,.12-.19.54.54,0,0,0,0-.22c0-2.38,0-4.79.09-6.82a.51.51,0,0,1,.15-.35.49.49,0,0,1,.82.37v0c-.12,2-.13,4.4-.09,6.76a.62.62,0,0,0,.18.4.53.53,0,0,0,.41.16.58.58,0,0,0,.41-.17.62.62,0,0,0,.16-.41c-.05-2.39,0-4.77.09-6.8a.49.49,0,0,1,.16-.32.46.46,0,0,1,.34-.12.48.48,0,0,1,.47.46v0c-.17,3-.11,6.7,0,10v.12a2.62,2.62,0,0,1-.3,1.22,2.59,2.59,0,0,1-.83.94.41.41,0,0,0-.15.17.48.48,0,0,0-.07.21,20.46,20.46,0,0,0,.16,2.95c.11,1.06.19,1.8.22,2.14a.26.26,0,0,0,.09.16.2.2,0,0,0,.17.06h3.67l1.37,0a.29.29,0,0,0,.18-.07.3.3,0,0,0,.08-.17c.32-2.93.39-4.57.39-4.57a.32.32,0,0,0-.07-.19.28.28,0,0,0-.19-.09l-1.66-.24a.53.53,0,0,1-.29-.14.5.5,0,0,1-.18-.27.76.76,0,0,1,0-.26c.67-9.77,3.88-13,3.88-13l.15-.14a.47.47,0,0,1,.22-.09.44.44,0,0,1,.23,0,.48.48,0,0,1,.33.31.67.67,0,0,1,0,.24,113,113,0,0,1,0,12.35c-.15,3.46-.33,6.17-.33,6.17a.24.24,0,0,0,0,.08.21.21,0,0,0,0,.06.18.18,0,0,0,.07.05h.07L23.5,30h0a.87.87,0,0,0,.51-.17.84.84,0,0,0,.29-.45c.58-2.49,1-12.08,1.05-12.51a.87.87,0,0,1,.2-.45.85.85,0,0,1,.41-.26l2.42-.48a.81.81,0,0,0,.45-.29.82.82,0,0,0,.18-.52.85.85,0,0,0-.08-.35A32.85,32.85,0,0,0,25.22,9" fill="#ff8000"/></svg>