<svg xmlns="http://www.w3.org/2000/svg" width="42" height="24" viewBox="0 0 42 24"><path d="M0,1.49C.09.3.32,0,1.3,0H30.66A10.92,10.92,0,0,1,36.8,1.83a11.09,11.09,0,0,1,4.09,5A13.73,13.73,0,0,1,42,13.07a11.22,11.22,0,0,1-2.49,6.31A11.54,11.54,0,0,1,30.85,24c-2.43,0-4.85,0-7.28,0a3,3,0,0,1-2.34-1c-2.14-2.14-4.24-4.31-6.35-6.49a3.07,3.07,0,0,1-.28-.35c0-1,.3-1.38,1.15-1.49a6.46,6.46,0,0,1,.88,0h13a3.46,3.46,0,0,0,1.84-.34A2.62,2.62,0,0,0,32.63,13a2.69,2.69,0,0,0,.09-1.77,2.78,2.78,0,0,0-.88-1.31,2.83,2.83,0,0,0-1.44-.62H9.75a4.44,4.44,0,0,1-3.5-1.47C4.49,6,2.61,4.16.79,2.32.51,2,.26,1.74,0,1.49Z" fill="#ef3d25"/></svg>