<svg xmlns="http://www.w3.org/2000/svg" width="167.03" height="52" viewBox="0 0 167.03 52" fill="#fff"><path d="M33.28,21.61a7.42,7.42,0,0,1,3.09.58A7.51,7.51,0,0,1,39,24l1.87-1.81a10,10,0,0,0-7.65-3.12C27,19.06,22.5,23.39,22.5,29.32S27,39.59,33.14,39.59a10,10,0,0,0,7.68-3.15L39,34.63A7.55,7.55,0,0,1,33.28,37a7.72,7.72,0,1,1,0-15.43Z" /><path d="M52.1,24.22a25.77,25.77,0,0,0-2.7-9.87l-.5-1-1.1.25a4,4,0,0,1-1,.12,4.26,4.26,0,0,1-3.66-2.11l-.68-1.14-1.2.59a4.77,4.77,0,0,1-2.1.5,4.78,4.78,0,0,1-4.8-4.76V5.59l-1.06-.3a4.2,4.2,0,0,1-2.12-1.41,4.24,4.24,0,0,1-.93-2.38L30.21.3,29,.17A26,26,0,1,0,48.43,39.38a9.13,9.13,0,0,0,1.73.16,7.57,7.57,0,0,0,7.9-7.77A7.43,7.43,0,0,0,52.1,24.22Zm-26,24.9a23.14,23.14,0,1,1,0-46.27c.5,0,1,0,1.52.06A7.18,7.18,0,0,0,29,5.73a7,7,0,0,0,2.52,1.93,7.68,7.68,0,0,0,7.62,6.73,7.54,7.54,0,0,0,2.21-.33,7.15,7.15,0,0,0,5.42,2.51,3.54,3.54,0,0,0,.46,0,22.69,22.69,0,0,1,1.93,7.5,7.51,7.51,0,0,0-7,7.69,7.53,7.53,0,0,0,3.49,6.55A23.19,23.19,0,0,1,26.09,49.12Zm24.07-12A5,5,0,0,1,45,31.76a5.13,5.13,0,1,1,10.26,0A5,5,0,0,1,50.16,37.12Z"/><path d="M67.73,24a7.58,7.58,0,0,0-7.94,7.74,7.6,7.6,0,0,0,7.94,7.77,7.58,7.58,0,0,0,7.91-7.77A7.55,7.55,0,0,0,67.73,24Zm0,13.1a5,5,0,0,1-5.15-5.36,5.14,5.14,0,1,1,10.27,0A5,5,0,0,1,67.73,37.12Z"/><path d="M92.43,24.16H89.09l-8.3,7.57V18.08H78V39.36h2.77V35.2L84,32.27l5.72,7.09h3.39l-7-8.92Z"/><path d="M98.3,24.16H95.54v15.2H98.3Z"/><path d="M96.92,17.65a1.69,1.69,0,0,0-.71.12,1.77,1.77,0,0,0-.61.39,2,2,0,0,0-.41.59,1.86,1.86,0,0,0-.14.7,1.8,1.8,0,0,0,.28,1.06,1.91,1.91,0,0,0,.83.71,1.83,1.83,0,0,0,1.08.13,1.85,1.85,0,0,0,1-.5,1.91,1.91,0,0,0,.53-1,1.94,1.94,0,0,0-.1-1.09A1.83,1.83,0,0,0,98,18,1.85,1.85,0,0,0,96.92,17.65Z"/><path d="M108.82,24a7.45,7.45,0,0,0-7.65,7.74c0,4.5,3.28,7.77,8.2,7.77a7.66,7.66,0,0,0,6-2.47l-1.53-1.78a5.68,5.68,0,0,1-4.4,1.84c-3,0-5.17-1.78-5.52-4.44H116.3a8.21,8.21,0,0,0,0-.84C116.35,27.17,113.22,24,108.82,24Zm-4.89,6.68a4.92,4.92,0,0,1,9.78,0Z"/><path d="M136.9,21.61a7.42,7.42,0,0,1,3.09.58,7.51,7.51,0,0,1,2.58,1.8l1.87-1.81a10,10,0,0,0-7.65-3.12c-6.13,0-10.67,4.33-10.67,10.26s4.54,10.27,10.64,10.27a10,10,0,0,0,7.68-3.15l-1.87-1.81A7.41,7.41,0,0,1,140,36.44a7.77,7.77,0,1,1-3.09-14.83Z"/><path d="M153.79,24a7.57,7.57,0,0,0-7.93,7.74,7.92,7.92,0,0,0,15.84,0A7.55,7.55,0,0,0,153.79,24Zm0,13.1a5,5,0,0,1-5.14-5.36,5.13,5.13,0,1,1,10.26,0A5,5,0,0,1,153.79,37.12Z"/><path d="M165.13,35.6a2,2,0,0,0-.76.14,2,2,0,0,0-.63.42,1.85,1.85,0,0,0-.43.64,2.12,2.12,0,0,0-.14.75,2.18,2.18,0,0,0,.14.76,2,2,0,0,0,.42.64,2,2,0,0,0,.64.43,2,2,0,0,0,.76.15,1.89,1.89,0,0,0,.74-.16,2,2,0,0,0,.63-.43,2,2,0,0,0,.4-.64,1.91,1.91,0,0,0,.12-.75,1.86,1.86,0,0,0-.12-.74,1.9,1.9,0,0,0-1.77-1.21Z"/></svg>
