<svg width="39" height="40" viewBox="0 0 39 40" fill="white" xmlns="http://www.w3.org/2000/svg">
<g clip-path="url(#clip0_559_172)">
<path d="M36.5525 10.4176C36.4048 10.2863 36.2387 10.3238 35.8143 10.4364C35.2606 10.5678 34.7254 10.5678 34.2271 10.4364C33.4335 10.2299 32.7691 9.70436 32.3077 8.89723C32.1416 8.61567 31.994 8.35289 31.8279 8.05256C31.4957 8.22149 31.1819 8.39043 30.8497 8.54059C29.7793 9.02863 28.7089 9.00986 27.6938 8.39043C26.4388 7.62084 25.9036 6.45706 25.9221 4.99296C25.9405 4.27968 25.9221 4.27968 25.2761 4.09198C24.3718 3.81042 23.7259 3.30361 23.3383 2.57156C23.1722 2.25246 23.043 1.87705 22.9692 1.4641C22.8954 1.06992 22.9138 0.656969 22.8769 0.244017C22.8031 0.225246 22.7662 0.225246 22.7108 0.206476C22.2679 0.150164 21.825 0.0938527 21.4005 0.0563116C21.2159 0.0375411 21.0314 0.0375411 20.8468 0.0187705C20.8284 0.0187705 20.8284 0.0187705 20.8099 0.0187705C20.6253 0.0187705 20.4592 0 20.2747 0C20.2193 0 20.164 0 20.1086 0C20.0348 0 19.9794 0 19.9056 0C19.8318 0 19.7764 0 19.7026 0C19.6287 0 19.5734 0 19.4996 0C19.3335 0 19.1674 0 18.9828 0.0187705C18.9643 0.0187705 18.9459 0.0187705 18.9459 0.0187705C17.3956 0.112623 15.9192 0.375411 14.4981 0.807133C11.7298 1.65181 9.27517 3.07837 7.15278 5.14313C5.99008 6.25059 4.95657 7.48944 4.08916 8.85969C1.89295 12.2196 0.84098 15.955 0.877891 19.9906C0.877891 19.9906 0.877891 19.9906 0.877891 20.0094C0.877891 20.0282 0.877891 20.0282 0.877891 20.0469C0.877891 20.122 0.877891 20.1971 0.877891 20.2534C0.896347 21.7738 1.0809 23.2379 1.39465 24.6645C2.13287 28.137 3.70159 31.1966 6.08236 33.7682C6.17464 33.862 6.26691 33.9559 6.35919 34.0685L6.37765 34.0873C7.70645 35.4951 9.2198 36.6964 10.8808 37.6349C13.6122 39.2304 16.5836 40.0375 19.7579 40.0188C19.7948 40.0188 19.8318 40.0188 19.8687 40.0188C21.9357 40.0188 23.9289 39.6621 25.7929 39.0239C25.8483 39.0052 25.9036 38.9864 25.959 38.9676C25.959 38.9676 25.959 38.9676 25.9775 38.9676C29.2625 37.8414 31.994 35.8705 34.2271 33.13C34.2455 33.1112 34.264 33.0737 34.2825 33.0549C34.3194 33.0174 34.3563 32.9611 34.3932 32.9235C34.8546 32.3416 35.2975 31.7222 35.7035 31.084C36.2203 30.2769 36.6632 29.4322 37.0692 28.55C38.1397 26.1849 38.7672 23.557 38.8594 20.7977C38.8594 20.535 38.8779 20.2909 38.8779 20.0282C38.8779 16.5368 38.0289 13.2708 36.5525 10.4176ZM36.9216 20.5162C36.8478 23.1253 36.2387 25.603 35.1868 27.8179C34.2455 29.8076 32.9721 31.572 31.4218 33.0549C31.3849 33.0549 31.348 33.0549 31.3111 33.0549C28.672 35.6077 25.5161 37.1469 21.8803 37.6537C21.4374 37.71 21.0129 37.7475 20.57 37.7851C20.6438 37.7851 20.7176 37.7851 20.7914 37.7663C20.5515 37.7851 20.2931 37.7851 20.0532 37.8038C19.924 37.8038 19.8133 37.8038 19.6841 37.8038C13.1877 37.7851 7.54035 34.031 4.64283 28.4937C4.64283 28.4937 4.64283 28.4749 4.62437 28.4749C4.569 28.381 4.53209 28.2872 4.47673 28.1933C3.27711 25.7156 2.64963 23.069 2.5758 20.4411C2.5758 20.3848 2.5758 20.3097 2.5758 20.2534C2.5758 20.1408 2.5758 20.0282 2.5758 19.9343C2.5758 19.8217 2.5758 19.6903 2.5758 19.5777C2.5758 19.5589 2.5758 19.5589 2.5758 19.5401C2.5758 19.2586 2.59426 18.977 2.61271 18.6954C2.61271 18.6579 2.61271 18.6391 2.61271 18.6016C2.63117 18.3576 2.64963 18.0948 2.68654 17.8508C2.68654 17.832 2.68654 17.7945 2.70499 17.7757C2.7419 17.5129 2.77881 17.2501 2.81573 16.9873C2.85264 16.7433 2.908 16.4993 2.94491 16.2553C2.94491 16.2365 2.96337 16.199 2.96337 16.1802C3.01874 15.9362 3.0741 15.7109 3.12947 15.4669V15.4481C5.03039 8.07133 11.3791 2.59033 19.0197 2.27123C19.4257 2.27123 19.8318 2.27123 20.2378 2.27123C20.4592 2.27123 20.6623 2.29 20.8837 2.30878C20.9391 2.34632 20.976 2.4214 21.0129 2.51525C21.4374 3.99812 22.2863 5.14313 23.6521 5.87518C23.7443 5.93149 23.8182 6.08165 23.8366 6.19428C24.1688 7.92116 24.9993 9.32895 26.4942 10.2675C27.8046 11.0934 29.2072 11.3186 30.7021 10.9432C30.9235 10.8869 31.0527 10.9244 31.2188 11.0934C32.2154 12.1633 33.4335 12.7452 34.8915 12.7827C35.2237 12.7827 35.3713 12.9141 35.5005 13.2145C35.7589 13.8714 36.2387 15.2229 36.2757 15.2229C36.7001 16.7621 36.9216 18.3764 36.9216 20.0469C36.9216 20.1596 36.9216 20.3285 36.9216 20.5162Z" fill="black"/>
</g>
<defs>
<clipPath id="clip0_559_172">
<rect width="38" height="40" fill="white" transform="translate(0.87793)"/>
</clipPath>
</defs>
</svg>
