<svg width="15" height="16" viewBox="0 0 15 16" fill="none" xmlns="http://www.w3.org/2000/svg"><path d="M7.89857 0.994302C8.46322 1.18252 9.02787 1.37074 9.61343 1.53804C9.8853 1.62169 10.1781 1.6426 10.45 1.68443C11.0983 1.789 11.6002 2.10269 11.9766 2.62552C12.3321 3.10652 12.7295 3.50386 13.2105 3.85938C13.796 4.27764 14.1097 4.88412 14.1934 5.59516C14.2561 6.11799 14.3816 6.64081 14.5907 7.12181C14.9044 7.83286 14.9044 8.52298 14.5907 9.23403C14.3607 9.75685 14.2352 10.3006 14.1725 10.8652C14.0888 11.5554 13.7542 12.0991 13.2105 12.4965C12.7504 12.852 12.3321 13.2493 11.9975 13.7094C11.5374 14.3368 10.8891 14.6505 10.1153 14.7132C9.63435 14.7551 9.17426 14.9224 8.71417 15.0897C8.48413 15.1733 8.23317 15.257 7.98222 15.2988C7.56396 15.3825 7.16661 15.2988 6.76926 15.1524C6.16279 14.9015 5.5354 14.7341 4.90801 14.6505C4.2597 14.5668 3.73688 14.2322 3.33953 13.7094C2.98401 13.2284 2.56575 12.8311 2.10566 12.4755C1.5201 12.0573 1.22732 11.4717 1.14366 10.7607C1.08093 10.2379 0.955447 9.75685 0.76723 9.27585C0.641752 9.00398 0.599926 8.69029 0.495361 8.39751C0.495361 8.25112 0.495361 8.10472 0.495361 7.95833C0.579013 7.66555 0.641752 7.35186 0.76723 7.07999C0.955447 6.59899 1.10184 6.11799 1.14366 5.59516C1.22732 4.88412 1.54101 4.29856 2.10566 3.85938C2.58666 3.50386 3.00492 3.0856 3.36044 2.6046C3.73688 2.08178 4.2597 1.76808 4.88709 1.66352C5.15896 1.62169 5.45174 1.60078 5.72361 1.51713C6.30918 1.34982 6.87383 1.16161 7.45939 0.973389C7.58487 0.994302 7.75218 0.994302 7.89857 0.994302ZM7.64761 1.80991C7.41757 1.87265 7.16661 1.93539 6.93657 2.01904C6.41374 2.22817 5.87 2.41639 5.30535 2.45821C4.69888 2.50004 4.23879 2.79282 3.90418 3.29473C3.88327 3.31565 3.86236 3.33656 3.86236 3.35747C3.52775 3.81756 3.10949 4.17308 2.6494 4.5286C2.27297 4.82138 2.04292 5.19782 2.0011 5.6579C1.93836 6.28529 1.77105 6.89177 1.5201 7.47733C1.31097 7.95833 1.31097 8.41842 1.5201 8.89942C1.77105 9.46407 1.93836 10.0705 2.0011 10.6979C2.06384 11.158 2.27297 11.5554 2.6494 11.8272C2.69123 11.8691 2.73305 11.9109 2.79579 11.9318C3.23497 12.2455 3.6114 12.6219 3.92509 13.0611C3.98783 13.1448 4.07149 13.2284 4.13422 13.3121C4.36427 13.6048 4.67796 13.7721 5.0544 13.8349C5.76544 13.9185 6.43466 14.0858 7.08296 14.3786C7.48031 14.5459 7.89857 14.5459 8.31683 14.3786C8.37957 14.3577 8.46322 14.3368 8.52596 14.295C8.9233 14.1277 9.32065 13.9813 9.75982 13.9395C9.92713 13.9185 10.0735 13.8767 10.2408 13.8767C10.7636 13.814 11.161 13.5212 11.4538 13.1029C11.7675 12.6638 12.1648 12.2873 12.604 11.9527C12.6876 11.89 12.7713 11.8272 12.834 11.7645C13.1268 11.5135 13.315 11.1998 13.3569 10.8234C13.4405 10.1751 13.566 9.54772 13.8379 8.94124C14.0679 8.43933 14.0679 7.93742 13.8379 7.43551C13.6078 6.9336 13.4405 6.38986 13.3987 5.84612C13.3569 5.23964 13.085 4.77956 12.5831 4.42404C12.1439 4.11034 11.7675 3.73391 11.4538 3.29473C11.391 3.21108 11.3283 3.12743 11.2656 3.06469C11.0146 2.77191 10.7009 2.58369 10.3245 2.54186C9.61343 2.45821 8.9233 2.27 8.275 1.99813C8.06587 1.87265 7.85674 1.85173 7.64761 1.80991Z" fill="white"/><path d="M11.7884 6.72447C11.7675 6.95451 11.7047 7.07999 11.5374 7.14273C11.391 7.20546 11.2237 7.20547 11.0983 7.1009C10.8055 6.82903 10.5127 6.53625 10.2199 6.22255C10.0735 6.07616 10.0944 5.80429 10.2408 5.6579C10.3872 5.51151 10.6382 5.4906 10.8055 5.63699C11.0983 5.90886 11.3701 6.20164 11.6629 6.49442C11.7466 6.55716 11.7675 6.66173 11.7884 6.72447Z" fill="white"/><path d="M8.50504 4.31947C8.46322 4.42404 8.42139 4.5286 8.35865 4.61225C8.1077 4.88412 7.83583 5.13508 7.56396 5.40695C7.37574 5.57425 7.12478 5.57425 6.95748 5.40695C6.79018 5.23964 6.79018 4.98869 6.95748 4.82138C7.20844 4.54951 7.48031 4.29856 7.75218 4.02669C7.87765 3.90121 8.04496 3.85938 8.21226 3.94304C8.37957 3.98486 8.48413 4.13125 8.50504 4.31947Z" fill="white"/><path d="M5.20079 9.27585C5.15896 9.38042 5.11714 9.48498 5.0544 9.56863C4.80344 9.8405 4.53157 10.0915 4.2597 10.3633C4.07149 10.5306 3.82053 10.5306 3.65323 10.3633C3.48592 10.196 3.48592 9.94507 3.65323 9.77776C3.90418 9.5059 4.17605 9.25494 4.44792 8.98307C4.5734 8.85759 4.7407 8.81577 4.90801 8.89942C5.07531 8.94124 5.17987 9.10855 5.20079 9.27585Z" fill="white"/><path d="M6.832 10.9489C6.85292 10.7607 6.93657 10.6352 7.08296 10.5515C7.25026 10.4679 7.41757 10.4888 7.54305 10.6143C7.83583 10.8862 8.1077 11.158 8.37957 11.4508C8.52596 11.6181 8.50504 11.8691 8.35865 12.0155C8.21226 12.1618 7.96131 12.1828 7.794 12.0364C7.50122 11.7645 7.22935 11.4717 6.95748 11.1998C6.89474 11.1371 6.87383 11.0325 6.832 10.9489Z" fill="white"/><path d="M5.17987 6.72447C5.15896 6.95451 5.09622 7.07999 4.92892 7.14273C4.76162 7.20546 4.61522 7.20547 4.48975 7.07999C4.19696 6.80812 3.92509 6.51534 3.63231 6.22255C3.48592 6.07616 3.50683 5.80429 3.65323 5.6579C3.79962 5.51151 4.05057 5.46969 4.21788 5.61608C4.51066 5.88795 4.80344 6.18073 5.09622 6.49442C5.13805 6.57807 5.15896 6.68264 5.17987 6.72447Z" fill="white"/><path d="M8.48413 8.35568C8.48413 8.58572 8.40048 8.7112 8.25409 8.79485C8.08678 8.87851 7.94039 8.85759 7.81491 8.75303C7.52213 8.48116 7.22935 8.18838 6.95748 7.89559C6.81109 7.7492 6.832 7.47733 6.97839 7.33094C7.12478 7.18455 7.37574 7.16364 7.54305 7.31003C7.83583 7.5819 8.12861 7.87468 8.40048 8.16746C8.4423 8.20929 8.46322 8.31385 8.48413 8.35568Z" fill="white"/><path d="M11.7884 9.33859C11.7675 9.38042 11.7256 9.5059 11.642 9.58955C11.391 9.86142 11.1192 10.1124 10.8682 10.3633C10.68 10.5306 10.429 10.5306 10.2617 10.3633C10.0944 10.196 10.0944 9.94507 10.2826 9.75685C10.5336 9.48498 10.8055 9.23403 11.0564 8.98307C11.2028 8.85759 11.3701 8.81577 11.5374 8.89942C11.7047 8.96216 11.7884 9.08764 11.7884 9.33859Z" fill="white"/></svg>