<?xml version="1.0" encoding="utf-8"?>
<!-- Generator: Adobe Illustrator 27.0.0, SVG Export Plug-In . SVG Version: 6.00 Build 0)  -->
<svg version="1.1" id="Layer_1" xmlns="http://www.w3.org/2000/svg" xmlns:xlink="http://www.w3.org/1999/xlink" x="0px" y="0px"
	 viewBox="0 0 123.8 130" style="enable-background:new 0 0 123.8 130;" xml:space="preserve">
<style type="text/css">
	.st0{fill:#FFA14A;}
</style>
<g>
	<g id="Path_20">
		<path d="M36.3,43.5c-0.1,0-0.3,0-0.4,0L33.4,43c-1.1-0.2-1.8-1.3-1.6-2.3c0.2-1.1,1.3-1.8,2.3-1.6l2.5,0.5
			c1.1,0.2,1.8,1.3,1.6,2.3C38.1,42.8,37.3,43.5,36.3,43.5z"/>
	</g>
	<g id="Path_21">
		<path d="M48.6,52.4c-0.2,0-0.5,0-0.7-0.1c-1-0.4-1.6-1.5-1.2-2.6l0.9-2.4c0.4-1,1.5-1.6,2.6-1.2c1,0.4,1.6,1.5,1.2,2.6l-0.9,2.4
			C50.2,51.9,49.4,52.4,48.6,52.4z"/>
	</g>
	<g id="Path_22">
		<path d="M22.2,51.6c-1,0-1.9-0.8-2-1.8L20,47.2c-0.1-1.1,0.7-2.1,1.8-2.1c1.1-0.1,2.1,0.7,2.2,1.8l0.2,2.6
			c0.1,1.1-0.7,2.1-1.8,2.1C22.3,51.6,22.2,51.6,22.2,51.6z"/>
	</g>
	<g id="Path_23">
		<path d="M26.2,72.1c-0.3,0-0.5-0.1-0.8-0.2l-2.3-1c-1-0.4-1.5-1.6-1.1-2.6c0.4-1,1.6-1.5,2.6-1.1l2.3,1c1,0.4,1.5,1.6,1.1,2.6
			C27.7,71.6,27,72.1,26.2,72.1z"/>
	</g>
	<g id="Path_24">
		<path d="M21.5,84.4c-0.8,0-1.5-0.5-1.8-1.2l-1-2.4c-0.4-1,0-2.2,1.1-2.6c1-0.4,2.2,0,2.6,1.1l1,2.4c0.4,1,0,2.2-1.1,2.6
			C22,84.3,21.8,84.4,21.5,84.4z"/>
	</g>
	<g id="Path_25">
		<path d="M34.5,81.8c-1,0-1.9-0.7-2-1.8c-0.1-1.1,0.6-2.1,1.7-2.2l2.5-0.3c1.1-0.1,2.1,0.6,2.2,1.7s-0.6,2.1-1.7,2.2l-2.5,0.3
			C34.6,81.8,34.6,81.8,34.5,81.8z"/>
	</g>
	<g id="Path_26">
		<path d="M40,69c-0.7,0-1.3-0.3-1.7-0.9c-0.6-0.9-0.3-2.2,0.6-2.8l2.2-1.4c0.9-0.6,2.2-0.3,2.8,0.6c0.6,0.9,0.3,2.2-0.6,2.8
			l-2.2,1.4C40.7,68.9,40.4,69,40,69z"/>
	</g>
	<g id="Path_27">
		<path d="M51.8,81.8c-0.4,0-0.9-0.1-1.2-0.4l-2-1.6c-0.9-0.7-1-1.9-0.3-2.8c0.7-0.9,1.9-1,2.8-0.3l2,1.6c0.9,0.7,1,1.9,0.3,2.8
			C53,81.5,52.4,81.8,51.8,81.8z"/>
	</g>
	<g id="Path_28">
		<path d="M77.2,51.7c-0.3,0-0.5,0-0.8-0.2l-2.4-1c-1-0.4-1.5-1.6-1.1-2.6c0.4-1,1.6-1.5,2.6-1.1l2.4,1c1,0.4,1.5,1.6,1.1,2.6
			C78.7,51.2,78,51.7,77.2,51.7z"/>
	</g>
	<g id="Path_29">
		<path d="M100,52.2c-0.4,0-0.9-0.1-1.2-0.4c-0.9-0.7-1-1.9-0.3-2.8l1.6-2c0.7-0.9,1.9-1,2.8-0.3c0.9,0.7,1,1.9,0.3,2.8l-1.6,2
			C101.2,52,100.6,52.2,100,52.2z"/>
	</g>
	<g id="Path_30">
		<path d="M89.1,44c-0.4,0-0.8-0.1-1.1-0.3l-2.2-1.4c-0.9-0.6-1.2-1.8-0.6-2.8c0.6-0.9,1.8-1.2,2.8-0.6l2.2,1.4
			c0.9,0.6,1.2,1.8,0.6,2.8C90.4,43.7,89.7,44,89.1,44z"/>
	</g>
	<g id="Path_31">
		<path d="M78.9,70.9c-0.6,0-1.3-0.3-1.7-0.9c-0.6-0.9-0.4-2.2,0.6-2.8l2.1-1.4c0.9-0.6,2.2-0.4,2.8,0.6c0.6,0.9,0.4,2.2-0.6,2.8
			L80,70.6C79.7,70.8,79.3,70.9,78.9,70.9z"/>
	</g>
	<g id="Path_32">
		<path d="M73.7,84.5c-0.2,0-0.4,0-0.6-0.1c-1.1-0.3-1.7-1.4-1.4-2.5l0.7-2.5c0.3-1.1,1.4-1.7,2.5-1.4c1.1,0.3,1.7,1.4,1.4,2.5
			L75.6,83C75.3,83.9,74.5,84.5,73.7,84.5z"/>
	</g>
	<g id="Path_33">
		<path d="M87.7,81.9c-1,0-1.8-0.7-2-1.7c-0.2-1.1,0.6-2.1,1.7-2.3l2.5-0.4c1.1-0.2,2.1,0.6,2.3,1.7c0.2,1.1-0.6,2.1-1.7,2.3
			L88,81.8C87.9,81.9,87.8,81.9,87.7,81.9z"/>
	</g>
	<g id="Path_34">
		<path d="M96.9,71.3c-0.6,0-1.2-0.2-1.5-0.7l-1.6-2c-0.7-0.9-0.6-2.1,0.3-2.8c0.9-0.7,2.1-0.6,2.8,0.3l1.6,2
			c0.7,0.9,0.6,2.1-0.3,2.8C97.8,71.1,97.4,71.3,96.9,71.3z"/>
	</g>
	<g id="Path_35">
		<path d="M104.9,82.8c-0.4,0-0.8-0.1-1.2-0.4l-2.1-1.5c-0.9-0.6-1.1-1.9-0.4-2.8c0.6-0.9,1.9-1.1,2.8-0.4l2.1,1.5
			c0.9,0.6,1.1,1.9,0.4,2.8C106.1,82.5,105.5,82.8,104.9,82.8z"/>
	</g>
	<path id="Path_36" d="M113.8,0H9.8c-5.5,0-10,4.5-10,10v110c0,5.5,4.5,10,10,10h104c5.5,0,10-4.5,10-10V10
		C123.8,4.5,119.3,0,113.8,0z M9.8,4h104c3.3,0,6,2.7,6,6v0.4c0.1,2.4-1.4,4.5-3.7,5.2c-9,2.8-28.1,7.4-54.8,7.4s-45.2-4.6-53.9-7.3
		c-2.2-0.8-3.7-2.8-3.6-5.2V10C3.8,6.7,6.5,4,9.8,4z M119.8,120c0,3.3-2.7,6-6,6H9.8c-3.3,0-6-2.7-6-6V90h116V120z M113.3,49v4h6.5
		v33H3.8V53h6.5v-4H3.8V18.3c0.7,0.5,1.5,0.9,2.4,1.2c8.9,2.8,27.9,7.5,55.1,7.5s46.8-4.7,56-7.5c0.9-0.3,1.7-0.7,2.5-1.2V49H113.3z
		"/>
	<rect id="Rectangle_5" x="59.8" y="49" width="4" height="4"/>
	<path id="Path_37" class="st0" d="M88.8,30c-12.6,0-23.7,8.4-27,20.6c-4.1-14.9-19.4-23.7-34.4-19.7S3.7,50.4,7.8,65.3
		c0.4,1.4,0.9,2.9,1.5,4.2C7.7,73.1,6.8,77,6.8,81c0,1.7,0.2,3.3,0.4,5h4.1c-0.3-1.6-0.5-3.3-0.5-5c0-13.3,10.7-24,24-24
		s24,10.7,24,24c0,1.7-0.2,3.4-0.5,5h7.1c-0.3-1.6-0.5-3.3-0.5-5c0-13.3,10.7-24,24-24s24,10.7,24,24c0,1.7-0.2,3.4-0.5,5h4.1
		c0.3-1.7,0.4-3.3,0.4-5c0-4-0.8-7.9-2.5-11.5c6.4-14.1,0.1-30.7-14-37C96.7,30.8,92.8,30,88.8,30z M57.8,65
		c-8.8-12.7-26.3-15.9-39-7c-2.7,1.9-5.1,4.3-7,7C8,52.3,15.3,38.9,28,35.1S54,38.6,57.8,51.3C59.1,55.8,59.1,60.5,57.8,65z
		 M61.8,73.6c-0.4-1.4-0.9-2.8-1.5-4.1c0.6-1.3,1.1-2.7,1.5-4.1c0.4,1.4,0.9,2.8,1.5,4.1C62.7,70.8,62.2,72.2,61.8,73.6z M111.8,65
		c-8.8-12.7-26.3-15.9-39-7c-2.7,1.9-5.1,4.3-7,7C62,52.3,69.3,38.9,82,35.1s26.1,3.4,29.9,16.1C113.1,55.8,113.1,60.5,111.8,65z"/>
</g>
</svg>
