<svg width="24" height="24" viewBox="0 0 24 24" fill="none" xmlns="http://www.w3.org/2000/svg" role="presentation"><path d="M12.4772 0.877127C13.3718 1.17532 14.2664 1.47351 15.1941 1.73857C15.6248 1.8711 16.0886 1.90423 16.5194 1.9705C17.5465 2.13616 18.3417 2.63315 18.938 3.46146C19.5013 4.22351 20.1308 4.85303 20.8929 5.41628C21.8206 6.07893 22.3176 7.03978 22.4501 8.16628C22.5495 8.99459 22.7483 9.82291 23.0796 10.585C23.5766 11.7115 23.5766 12.8048 23.0796 13.9313C22.7152 14.7597 22.5164 15.6211 22.417 16.5157C22.2844 17.6091 21.7543 18.4705 20.8929 19.1C20.164 19.6633 19.5013 20.2928 18.9712 21.0217C18.2423 22.0157 17.2152 22.5127 15.9893 22.6121C15.2272 22.6783 14.4983 22.9434 13.7694 23.2084C13.4049 23.341 13.0073 23.4735 12.6097 23.5398C11.9471 23.6723 11.3176 23.5398 10.688 23.3078C9.72721 22.9103 8.73323 22.6452 7.73925 22.5127C6.71215 22.3801 5.88383 21.85 5.25431 21.0217C4.69106 20.2597 4.02841 19.6301 3.2995 19.0669C2.37178 18.4042 1.90793 17.4765 1.7754 16.35C1.676 15.5217 1.47721 14.7597 1.17901 13.9976C0.980219 13.5669 0.913954 13.0699 0.748291 12.606C0.748291 12.3741 0.748291 12.1422 0.748291 11.9103C0.880821 11.4464 0.980219 10.9494 1.17901 10.5187C1.47721 9.75664 1.70913 8.99459 1.7754 8.16628C1.90793 7.03978 2.40492 6.11207 3.2995 5.41628C4.06154 4.85303 4.72419 4.19038 5.28745 3.42833C5.88383 2.60002 6.71215 2.10303 7.70612 1.93737C8.13684 1.8711 8.6007 1.83797 9.03142 1.70544C9.95913 1.44038 10.8537 1.14219 11.7814 0.843994C11.9802 0.877127 12.2453 0.877127 12.4772 0.877127ZM12.0796 2.1693C11.7152 2.26869 11.3176 2.36809 10.9531 2.50062C10.1248 2.83195 9.26335 3.13014 8.36877 3.1964C7.40793 3.26267 6.67901 3.72652 6.14889 4.5217C6.11576 4.55484 6.08263 4.58797 6.08263 4.6211C5.55251 5.35002 4.88986 5.91327 4.16094 6.47652C3.56456 6.94038 3.2001 7.53676 3.13383 8.26568C3.03444 9.25965 2.76938 10.2205 2.37178 11.1482C2.04046 11.9103 2.04046 12.6392 2.37178 13.4012C2.76938 14.2958 3.03444 15.2566 3.13383 16.2506C3.23323 16.9795 3.56456 17.6091 4.16094 18.0398C4.22721 18.106 4.29347 18.1723 4.39287 18.2054C5.08865 18.7024 5.68504 19.2988 6.18203 19.9946C6.28142 20.1271 6.41395 20.2597 6.51335 20.3922C6.87781 20.856 7.3748 21.1211 7.97118 21.2205C9.09769 21.353 10.1579 21.6181 11.185 22.0819C11.8146 22.347 12.4772 22.347 13.1399 22.0819C13.2393 22.0488 13.3718 22.0157 13.4712 21.9494C14.1007 21.6844 14.7302 21.4524 15.426 21.3862C15.6911 21.353 15.923 21.2868 16.188 21.2868C17.0164 21.1874 17.6459 20.7235 18.1097 20.0609C18.6067 19.3651 19.2362 18.7687 19.932 18.2386C20.0646 18.1392 20.1971 18.0398 20.2965 17.9404C20.7603 17.5428 21.0585 17.0458 21.1248 16.4494C21.2573 15.4223 21.4561 14.4283 21.8868 13.4675C22.2513 12.6723 22.2513 11.8771 21.8868 11.0819C21.5224 10.2868 21.2573 9.42532 21.1911 8.56387C21.1248 7.60303 20.6941 6.87411 19.8989 6.31086C19.2031 5.81387 18.6067 5.21749 18.1097 4.5217C18.0103 4.38917 17.9109 4.25664 17.8115 4.15725C17.414 3.69339 16.917 3.3952 16.3206 3.32893C15.1941 3.1964 14.1007 2.89821 13.0736 2.46749C12.7423 2.26869 12.4109 2.23556 12.0796 2.1693Z" fill="white"/><path d="M18.6399 9.95544C18.6067 10.3199 18.5073 10.5187 18.2423 10.6181C18.0103 10.7175 17.7453 10.7175 17.5465 10.5518C17.0826 10.1211 16.6188 9.65725 16.1549 9.16026C15.923 8.92833 15.9561 8.49761 16.188 8.26568C16.42 8.03375 16.8176 8.00062 17.0826 8.23255C17.5465 8.66327 17.9772 9.12712 18.4411 9.59098C18.5736 9.69038 18.6067 9.85604 18.6399 9.95544Z" fill="#FF9330"/><path d="M13.438 6.1452C13.3718 6.31086 13.3055 6.47652 13.2061 6.60905C12.8085 7.03978 12.3778 7.43737 11.9471 7.86809C11.6489 8.13315 11.2513 8.13315 10.9862 7.86809C10.7212 7.60303 10.7212 7.20544 10.9862 6.94038C11.3838 6.50966 11.8146 6.11207 12.2453 5.68134C12.4441 5.48255 12.7091 5.41628 12.9742 5.54881C13.2393 5.61508 13.4049 5.84701 13.438 6.1452Z" fill="#FF9330"/><path d="M8.20311 13.9976C8.13684 14.1633 8.07058 14.3289 7.97118 14.4615C7.57359 14.8922 7.14287 15.2898 6.71215 15.7205C6.41395 15.9856 6.01636 15.9856 5.7513 15.7205C5.48624 15.4554 5.48624 15.0578 5.7513 14.7928C6.14889 14.3621 6.57962 13.9645 7.01034 13.5338C7.20913 13.335 7.47419 13.2687 7.73925 13.4012C8.00431 13.4675 8.16998 13.7325 8.20311 13.9976Z" fill="#FF9330"/><path d="M10.7874 16.6482C10.8206 16.35 10.9531 16.1512 11.185 16.0187C11.4501 15.8862 11.7152 15.9193 11.914 16.1181C12.3778 16.5488 12.8085 16.9795 13.2393 17.4434C13.4712 17.7084 13.438 18.106 13.2061 18.338C12.9742 18.5699 12.5766 18.603 12.3115 18.3711C11.8477 17.9404 11.417 17.4765 10.9862 17.0458C10.8868 16.9464 10.8537 16.7807 10.7874 16.6482Z" fill="#FF9330"/><path d="M8.16998 9.95544C8.13684 10.3199 8.03745 10.5187 7.77239 10.6181C7.50733 10.7175 7.2754 10.7175 7.0766 10.5187C6.61275 10.088 6.18203 9.62411 5.71817 9.16026C5.48624 8.92833 5.51937 8.49761 5.7513 8.26568C5.98323 8.03375 6.38082 7.96749 6.64588 8.19941C7.10974 8.63014 7.57359 9.09399 8.03745 9.59098C8.10371 9.72351 8.13684 9.88917 8.16998 9.95544Z" fill="#FF9330"/><path d="M13.4049 12.5398C13.4049 12.9042 13.2724 13.103 13.0405 13.2356C12.7754 13.3681 12.5435 13.335 12.3447 13.1693C11.8808 12.7386 11.417 12.2747 10.9862 11.8109C10.7543 11.5789 10.7874 11.1482 11.0194 10.9163C11.2513 10.6844 11.6489 10.6512 11.914 10.8831C12.3778 11.3139 12.8417 11.7777 13.2724 12.2416C13.3387 12.3078 13.3718 12.4735 13.4049 12.5398Z" fill="#FF9330"/><path d="M18.6399 14.097C18.6067 14.1633 18.5405 14.3621 18.4079 14.4946C18.0103 14.9253 17.5796 15.3229 17.182 15.7205C16.8838 15.9856 16.4862 15.9856 16.2212 15.7205C15.9561 15.4554 15.9561 15.0578 16.2543 14.7597C16.6519 14.3289 17.0826 13.9313 17.4802 13.5338C17.7121 13.335 17.9772 13.2687 18.2423 13.4012C18.5073 13.5006 18.6399 13.6994 18.6399 14.097Z" fill="#FF9330"/></svg>