<svg width="18" height="22" viewBox="0 0 18 22" fill="none" xmlns="http://www.w3.org/2000/svg"><circle cx="6.33981" cy="15.4558" r="1.56955" fill="#FFA14A"/><path d="M5.87389 21.0558C5.59106 21.0002 5.30319 20.9649 5.03046 20.8891C2.77794 20.2528 1.35875 18.7982 0.868848 16.5154C0.348646 14.1164 1.55067 11.6417 3.72743 10.4952C3.85874 10.4245 3.90925 10.3538 3.9042 10.2023C3.8941 9.87398 3.89915 9.5457 3.89915 9.21237C3.9042 8.36388 4.27793 7.72752 5.03046 7.33863C5.9143 6.88409 6.79813 6.43459 7.69207 6.01035C9.11126 5.33863 10.6264 6.30328 10.6264 7.86893C10.6315 9.0356 10.6264 10.2073 10.6264 11.374C10.6264 11.4447 10.6264 11.5204 10.6264 11.6164C10.7123 11.6164 10.783 11.6164 10.8587 11.6164C11.8739 11.6164 12.889 11.6114 13.9042 11.6164C14.6163 11.6215 15.2224 11.874 15.6365 12.475C15.7931 12.7023 15.9143 12.9699 15.9799 13.2376C16.4294 14.9851 16.8587 16.7326 17.288 18.48C17.5809 19.677 16.9092 20.7427 15.7022 21.0103C15.6769 21.0154 15.6567 21.0305 15.6315 21.0457C15.4294 21.0457 15.2274 21.0457 15.0254 21.0457C14.9951 21.0305 14.9698 21.0103 14.9395 21.0053C14.0608 20.7932 13.5456 20.2275 13.3335 19.3639C13.0456 18.1871 12.7476 17.0103 12.4496 15.8336C12.4345 15.773 12.3739 15.6871 12.3183 15.677C12.2123 15.6518 12.0961 15.672 11.9951 15.672C11.9345 16.0558 11.9092 16.4194 11.8133 16.7629C11.2173 18.9194 9.83853 20.3083 7.66682 20.8891C7.39409 20.9598 7.11631 21.0002 6.83854 21.0507C6.52036 21.0558 6.19712 21.0558 5.87389 21.0558ZM7.93955 11.5103C7.93955 12.0305 7.9547 12.5457 7.9345 13.0608C7.9244 13.3386 7.88904 13.6265 7.80823 13.8891C7.46985 14.98 6.06581 15.5457 5.05571 15.0154C4.28804 14.6113 3.90925 13.975 3.9042 13.1114C3.9042 12.7477 3.9042 12.379 3.9042 12.0002C2.46481 12.9548 1.70218 14.9497 2.33349 16.7932C3.03551 18.8285 4.985 19.975 7.10621 19.6416C9.07591 19.3336 10.581 17.5911 10.6264 15.4952C10.6668 13.4699 9.28298 11.9598 7.93955 11.5103ZM9.27288 10.5861C9.27793 10.571 9.28298 10.5507 9.28298 10.5356C9.28298 9.64671 9.28803 8.76287 9.28298 7.87398C9.28298 7.76792 9.26278 7.65681 9.22237 7.56085C9.06076 7.17196 8.66177 7.04065 8.24763 7.24267C7.41935 7.65176 6.59611 8.076 5.76278 8.48004C5.39915 8.65681 5.24258 8.91439 5.24258 9.32348C5.25773 10.5659 5.24763 11.8083 5.24763 13.0507C5.24763 13.1366 5.24763 13.2275 5.26278 13.3134C5.31329 13.672 5.67187 13.9245 6.03046 13.8538C6.38904 13.7831 6.59611 13.5204 6.59611 13.1063C6.60116 12.0659 6.59611 11.0255 6.60116 9.98004C6.60116 9.61136 6.87389 9.33358 7.22238 9.31843C7.59611 9.30328 7.87894 9.54065 7.9345 9.91439C7.9446 9.96994 7.9749 10.0507 8.02035 10.071C8.42944 10.2477 8.84864 10.4144 9.27288 10.5861ZM11.4597 12.98C11.5961 13.4144 11.7173 13.8235 11.8537 14.2275C11.8688 14.2679 11.9496 14.3134 12.0001 14.3134C12.2476 14.3235 12.4951 14.3184 12.7476 14.3184C13.3234 14.3184 13.5203 14.475 13.6618 15.0356C14.0001 16.3942 14.3385 17.7528 14.6769 19.1063C14.788 19.5457 15.1315 19.773 15.5254 19.6719C15.8739 19.581 16.086 19.2174 15.99 18.8336C15.5506 17.0659 15.1113 15.2982 14.6668 13.5356C14.5709 13.1619 14.3284 12.9851 13.9345 12.98C13.7072 12.98 13.4799 12.98 13.2476 12.98C12.6466 12.98 12.0507 12.98 11.4597 12.98Z" fill="white"/><path d="M11.9799 3.09621C11.9799 4.57601 10.7729 5.78813 9.29308 5.79823C7.81328 5.80833 6.58601 4.57601 6.59611 3.09116C6.60116 1.59621 7.79813 0.404297 9.28803 0.404297C10.7729 0.404297 11.9799 1.60632 11.9799 3.09621ZM9.29308 4.43965C10.0204 4.43459 10.6264 3.82348 10.6315 3.10126C10.6315 2.36389 10.0153 1.75783 9.27793 1.76288C8.54056 1.76793 7.94965 2.36389 7.9446 3.09621C7.93955 3.82348 8.55571 4.4447 9.29308 4.43965Z" fill="white"/></svg>