<svg width="17" height="17" viewBox="0 0 17 17" fill="none" xmlns="http://www.w3.org/2000/svg"><path d="M8.92514 0.280151C4.52679 0.280151 0.953125 3.85381 0.953125 8.25217C0.953125 12.6505 4.52679 16.2242 8.92514 16.2242C13.3235 16.2242 16.8972 12.6505 16.8972 8.25217C16.8972 3.85381 13.3235 0.280151 8.92514 0.280151ZM12.8974 9.07686H9.74983V12.2244C9.74983 12.678 9.37872 13.0491 8.92514 13.0491C8.47156 13.0491 8.10045 12.678 8.10045 12.2244V9.07686H4.95288C4.4993 9.07686 4.12819 8.70575 4.12819 8.25217C4.12819 7.79859 4.4993 7.42747 4.95288 7.42747H8.10045V4.2799C8.10045 3.82632 8.47156 3.45521 8.92514 3.45521C9.37872 3.45521 9.74983 3.82632 9.74983 4.2799V7.42747H12.8974C13.351 7.42747 13.7221 7.79859 13.7221 8.25217C13.7221 8.70575 13.351 9.07686 12.8974 9.07686Z" fill="#FF9B3F"/></svg>