<svg width="14" height="14" viewBox="0 0 14 14" fill="none" xmlns="http://www.w3.org/2000/svg" role="presentation"><path d="M0.837068 6.89235C0.848151 3.30152 3.76662 0.394131 7.35006 0.405213C10.9187 0.416296 13.8409 3.35324 13.8224 6.90343C13.8039 10.5238 10.8818 13.409 7.25401 13.3869C3.72598 13.3684 0.825985 10.4315 0.837068 6.89235ZM7.33528 1.58738C4.40573 1.58738 2.01923 3.96279 2.01923 6.88126C2.01923 9.8219 4.39465 12.2084 7.31681 12.2047C10.2574 12.2047 12.6366 9.82559 12.6402 6.88865C12.6439 3.97018 10.2574 1.58738 7.33528 1.58738Z" fill="#252525"/><path d="M6.7442 5.12649C6.7442 4.52802 6.74051 3.92954 6.74789 3.33107C6.75159 3.04292 6.97694 2.80649 7.25031 2.77693C7.55324 2.74368 7.81923 2.90993 7.89681 3.19808C7.91898 3.27935 7.91898 3.37171 7.91898 3.45668C7.91898 4.47629 7.92267 5.49222 7.91898 6.51184C7.91898 6.61158 7.94853 6.68177 8.01872 6.75196C8.51375 7.23961 9.00509 7.73464 9.49643 8.22598C9.66267 8.39222 9.72917 8.58801 9.66267 8.82075C9.59987 9.0461 9.4484 9.18279 9.22675 9.23451C9.02356 9.28254 8.83885 9.23082 8.69108 9.08674C8.0963 8.49566 7.50522 7.90088 6.91044 7.3098C6.78484 7.18419 6.7442 7.02903 6.7442 6.8554C6.7442 6.2791 6.74051 5.70279 6.7442 5.12649Z" fill="#FF993C"/></svg>