<svg width="15" height="15" viewBox="0 0 15 15" fill="none" xmlns="http://www.w3.org/2000/svg" role="presentation"><path d="M14.4141 5.88944C14.0206 4.12084 13.0426 2.74567 11.5497 1.73452C10.6415 1.12047 9.64141 0.756456 8.54201 0.66821C8.51627 0.664533 8.49053 0.653503 8.4648 0.646149C8.25521 0.646149 8.04195 0.646149 7.83237 0.646149C7.82501 0.653503 7.81766 0.660856 7.81031 0.664533C7.50144 0.782195 7.34701 1.01384 7.39849 1.29329C7.44997 1.57641 7.67058 1.73819 7.99415 1.7529C8.28095 1.76761 8.57143 1.77864 8.85455 1.83379C10.7224 2.17942 12.0755 3.21632 12.9175 4.91505C13.2816 5.65044 13.436 6.4373 13.447 7.25357C13.4507 7.52934 13.6382 7.74628 13.903 7.79776C14.1603 7.84556 14.4141 7.6948 14.5133 7.43742C14.5244 7.41168 14.5354 7.38962 14.5464 7.36388C14.5464 7.15429 14.5464 6.94103 14.5464 6.73145C14.506 6.44833 14.4766 6.1652 14.4141 5.88944Z" fill="#FF993C"/><path d="M9.53846 8.84568C9.28843 8.59932 8.97221 8.603 8.72218 8.84935C8.52363 9.04423 8.31772 9.23911 8.1302 9.44501C8.02724 9.559 7.95003 9.56635 7.82134 9.48178C7.24038 9.11042 6.74768 8.63977 6.29174 8.12868C6.03435 7.84188 5.79535 7.54037 5.62621 7.19106C5.63725 7.17268 5.64092 7.16533 5.6446 7.16533C5.87257 6.93368 6.10421 6.70571 6.33218 6.47406C6.58221 6.22036 6.58589 5.89679 6.33586 5.64308C5.35045 4.65767 4.36503 3.66858 3.37594 2.68316C3.11488 2.4221 2.79866 2.42578 2.5376 2.68684C1.90885 3.31191 1.2801 3.94434 0.647666 4.56942C0.51162 4.70179 0.449113 4.85622 0.45279 5.0511C0.471174 5.96665 0.724882 6.82337 1.09993 7.647C1.73236 9.04423 2.6332 10.2613 3.70686 11.3497C4.85039 12.5152 6.13363 13.4896 7.63749 14.1478C8.417 14.4897 9.22592 14.714 10.0826 14.7398C10.2738 14.7471 10.4319 14.6846 10.5643 14.5486C11.2041 13.9051 11.8512 13.2653 12.491 12.6219C12.7447 12.3682 12.7447 12.0483 12.491 11.7946C11.5056 10.8092 10.5239 9.82741 9.53846 8.84568ZM11.2519 12.302C10.8401 12.7138 10.4283 13.1256 10.0165 13.5374C9.95763 13.5963 9.90247 13.6257 9.81423 13.6183C9.17444 13.5595 8.57878 13.3609 8.00151 13.0962C6.48661 12.4013 5.20705 11.3828 4.08559 10.162C3.30976 9.31632 2.65159 8.38606 2.17359 7.33814C1.89047 6.7241 1.69191 6.08064 1.59263 5.41144C1.57057 5.27539 1.59631 5.17611 1.70294 5.07316C2.12579 4.66502 2.53393 4.24585 2.95309 3.82668C3.70319 4.57677 4.43857 5.31216 5.19234 6.06593C5.0232 6.23506 4.85039 6.41523 4.66286 6.5807C4.42019 6.80131 4.37239 7.05134 4.49005 7.35285C4.68125 7.8382 4.9754 8.25369 5.30632 8.6508C5.86521 9.32 6.48661 9.92301 7.22567 10.39C7.44261 10.5297 7.68529 10.6363 7.92797 10.7319C8.15594 10.8239 8.3692 10.7614 8.54201 10.5849C8.73321 10.39 8.92809 10.1951 9.11193 10.0113C9.851 10.7503 10.5827 11.482 11.3254 12.2248C11.3107 12.2395 11.2813 12.2726 11.2519 12.302Z" fill="#252525"/><path d="M11.2445 7.22416C11.2519 7.56243 11.4835 7.80143 11.7961 7.80143C12.116 7.80143 12.355 7.54773 12.3403 7.20577C12.3292 6.94839 12.3072 6.69468 12.2631 6.44097C11.9137 4.42602 10.0973 2.88172 8.04563 2.84495C7.97577 2.84862 7.9059 2.84495 7.83972 2.85598C7.5566 2.90745 7.3654 3.15748 7.38746 3.44061C7.40952 3.72005 7.63749 3.92228 7.92797 3.94802C8.23315 3.97744 8.54569 3.99582 8.83617 4.07671C10.2665 4.48485 11.2115 5.73133 11.2445 7.22416Z" fill="#FF993C"/><path d="M7.39114 5.58793C7.38378 5.90782 7.61911 6.13947 7.97209 6.15417C8.57143 6.17623 9.02001 6.63585 9.04207 7.24622C9.05678 7.57346 9.28843 7.80879 9.60097 7.80511C9.9135 7.80143 10.1451 7.5514 10.1451 7.22048C10.1415 6.06593 9.16709 5.07684 8.01254 5.05477C7.6522 5.04374 7.39849 5.26436 7.39114 5.58793Z" fill="#FF993C"/></svg>