<?xml version="1.0" encoding="utf-8"?>
<!-- Generator: Adobe Illustrator 27.0.0, SVG Export Plug-In . SVG Version: 6.00 Build 0)  -->
<svg version="1.1" id="Layer_1" xmlns="http://www.w3.org/2000/svg" xmlns:xlink="http://www.w3.org/1999/xlink" x="0px" y="0px"
	 viewBox="0 0 219 130" style="enable-background:new 0 0 219 130;" xml:space="preserve">
<style type="text/css">
	.st0{fill:#FFA14A;}
</style>
<g>
	<g id="Path_38">
		<path d="M219,87.8h-4v-78h4V87.8z M4,87.8H0v-78h4V87.8z"/>
	</g>
	<g id="Path_39">
		<path d="M108.6,26.8c-53,0-88.3-5.6-100.9-8C3.2,18,0,14.1,0,9.5c0-5.3,4.4-9.7,9.7-9.7h199.6c5.4,0,9.7,4.3,9.7,9.6
			c0.1,4.6-3.1,8.5-7.6,9.3C198.1,21.2,161.4,26.8,108.6,26.8z M9.7,3.8C6.6,3.8,4,6.4,4,9.5v0c0,2.6,1.8,4.8,4.4,5.3
			c12.6,2.4,47.5,8,100.2,8c52.5,0,88.9-5.6,102.1-8c2.6-0.5,4.4-2.7,4.4-5.3c0-1.6-0.6-3-1.7-4c-1.1-1.1-2.5-1.7-4-1.7c0,0,0,0,0,0
			H9.7z"/>
	</g>
	<g id="Path_40">
		<path d="M218,54.8h-7.9v-4h7.9V54.8z M9.9,54.8H2v-4h7.9V54.8z"/>
	</g>
	<g id="Path_41">
		<path class="st0" d="M55.6,65.8c-0.2,0-0.5,0-0.7-0.1c-1-0.4-1.6-1.5-1.2-2.6c0.9-2.4,1.3-4.9,1.3-7.4c0-12.1-9.9-22-22-22
			s-22,9.9-22,22c0,2.5,0.4,5,1.3,7.4c0.4,1-0.2,2.2-1.2,2.6c-1,0.4-2.2-0.2-2.6-1.2c-1-2.8-1.5-5.8-1.5-8.8c0-14.3,11.7-26,26-26
			s26,11.7,26,26c0,3-0.5,6-1.5,8.8C57.2,65.3,56.4,65.8,55.6,65.8z"/>
	</g>
	<g id="Path_42">
		<path class="st0" d="M61.4,65.8c-0.8,0-1.6-0.5-1.9-1.3c-1-2.8-1.5-5.8-1.5-8.8c0-6.9,2.7-13.5,7.6-18.4s11.4-7.6,18.4-7.6
			c0,0,0,0,0,0c14.3,0,26,11.7,26,26c0,2.8-0.5,5.6-1.3,8.3c-0.4,1-1.5,1.6-2.5,1.3c-1-0.4-1.6-1.5-1.3-2.5c0.8-2.3,1.1-4.6,1.1-7
			c0-12.1-9.9-22-22-22c0,0,0,0,0,0c-5.9,0-11.4,2.3-15.6,6.4c-4.2,4.2-6.4,9.7-6.4,15.6c0,2.5,0.4,5,1.3,7.4c0.4,1-0.2,2.2-1.2,2.6
			C61.9,65.8,61.6,65.8,61.4,65.8z"/>
	</g>
	<g id="Path_43">
		<g>
			<path d="M34.5,42.7c-0.1,0-0.2,0-0.3,0l-2.3-0.4c-1.1-0.2-1.8-1.2-1.6-2.3c0.2-1.1,1.2-1.8,2.3-1.6l2.3,0.4
				c1.1,0.2,1.8,1.2,1.6,2.3C36.3,42,35.4,42.7,34.5,42.7z"/>
		</g>
	</g>
	<g id="Path_44">
		<g>
			<path d="M44.7,51.1c-0.2,0-0.5,0-0.7-0.1c-1-0.4-1.6-1.5-1.2-2.6l0.8-2.2c0.4-1,1.5-1.6,2.6-1.2c1,0.4,1.6,1.5,1.2,2.6l-0.8,2.2
				C46.3,50.6,45.5,51.1,44.7,51.1z"/>
		</g>
	</g>
	<g id="Path_45">
		<g>
			<path d="M20.3,51.2c-1,0-1.9-0.8-2-1.8L18.1,47c-0.1-1.1,0.7-2.1,1.8-2.2c1.1-0.1,2.1,0.7,2.2,1.8l0.2,2.4
				c0.1,1.1-0.7,2.1-1.8,2.2C20.4,51.2,20.3,51.2,20.3,51.2z"/>
		</g>
	</g>
	<g id="Path_46">
		<g>
			<path d="M26.2,62.5c-0.3,0-0.6-0.1-0.8-0.2l-2.2-1c-1-0.5-1.4-1.6-1-2.7c0.5-1,1.6-1.4,2.7-1l2.2,1c1,0.5,1.4,1.6,1,2.7
				C27.7,62,26.9,62.5,26.2,62.5z"/>
		</g>
	</g>
	<g id="Path_47">
		<g>
			<path d="M22.2,82.5c-0.3,0-0.6-0.1-0.8-0.2l-2.2-1c-1-0.5-1.4-1.6-1-2.7c0.5-1,1.6-1.4,2.7-1l2.2,1c1,0.5,1.4,1.6,1,2.7
				C23.7,82,22.9,82.5,22.2,82.5z"/>
		</g>
	</g>
	<g id="Path_48">
		<g>
			<path d="M39,61.5c-0.7,0-1.3-0.3-1.7-0.9c-0.6-0.9-0.3-2.2,0.6-2.8l2-1.3c0.9-0.6,2.2-0.3,2.8,0.6c0.6,0.9,0.3,2.2-0.6,2.8
				l-2,1.3C39.7,61.4,39.4,61.5,39,61.5z"/>
		</g>
	</g>
	<g id="Path_49">
		<g>
			<path d="M33,76.5c-0.7,0-1.3-0.3-1.7-0.9c-0.6-0.9-0.3-2.2,0.6-2.8l2-1.3c0.9-0.6,2.2-0.3,2.8,0.6c0.6,0.9,0.3,2.2-0.6,2.8
				l-2,1.3C33.7,76.4,33.4,76.5,33,76.5z"/>
		</g>
	</g>
	<g id="Path_50">
		<g>
			<path d="M73.2,49.4c-0.3,0-0.5,0-0.8-0.1l-2.2-0.9c-1-0.4-1.5-1.6-1.1-2.6c0.4-1,1.6-1.5,2.6-1.1l2.2,0.9c1,0.4,1.5,1.6,1.1,2.6
				C74.7,48.9,74,49.4,73.2,49.4z"/>
		</g>
	</g>
	<g id="Path_51">
		<g>
			<path d="M45.9,84.5c-0.4,0-0.9-0.1-1.2-0.4l-1.9-1.4c-0.9-0.7-1-1.9-0.4-2.8c0.7-0.9,1.9-1,2.8-0.4l1.9,1.4
				c0.9,0.7,1,1.9,0.4,2.8C47.1,84.2,46.5,84.5,45.9,84.5z"/>
		</g>
	</g>
	<g id="Path_52">
		<g>
			<path d="M96.2,50.7c-0.4,0-0.9-0.1-1.2-0.4c-0.9-0.7-1-1.9-0.3-2.8l1.5-1.8c0.7-0.9,2-1,2.8-0.3c0.9,0.7,1,1.9,0.3,2.8l-1.5,1.8
				C97.4,50.4,96.8,50.7,96.2,50.7z"/>
		</g>
	</g>
	<g id="Path_53">
		<g>
			<path d="M84.2,43.2c-0.4,0-0.7-0.1-1.1-0.3l-2-1.3c-0.9-0.6-1.2-1.8-0.6-2.8c0.6-0.9,1.8-1.2,2.8-0.6l2,1.3
				c0.9,0.6,1.2,1.8,0.6,2.8C85.5,42.9,84.9,43.2,84.2,43.2z"/>
		</g>
	</g>
	<g id="Path_54">
		<g>
			<path d="M76,60.5c-0.6,0-1.3-0.3-1.7-0.9c-0.6-0.9-0.4-2.2,0.6-2.8l2-1.3c0.9-0.6,2.2-0.4,2.8,0.6c0.6,0.9,0.4,2.2-0.6,2.8
				l-2,1.3C76.8,60.4,76.4,60.5,76,60.5z"/>
		</g>
	</g>
	<g id="Path_55">
		<g>
			<path d="M72,83.5c-0.6,0-1.3-0.3-1.7-0.9c-0.6-0.9-0.4-2.2,0.6-2.8l2-1.3c0.9-0.6,2.2-0.4,2.8,0.6c0.6,0.9,0.4,2.2-0.6,2.8
				l-2,1.3C72.8,83.4,72.4,83.5,72,83.5z"/>
		</g>
	</g>
	<g id="Path_56">
		<g>
			<path d="M92.7,62.7c-0.6,0-1.1-0.2-1.5-0.7l-1.5-1.8c-0.7-0.8-0.6-2.1,0.3-2.8c0.8-0.7,2.1-0.6,2.8,0.3l1.5,1.8
				c0.7,0.8,0.6,2.1-0.3,2.8C93.6,62.5,93.1,62.7,92.7,62.7z"/>
		</g>
	</g>
	<g id="Path_57">
		<g>
			<path d="M85.7,77.7c-0.6,0-1.1-0.2-1.5-0.7l-1.5-1.8c-0.7-0.8-0.6-2.1,0.3-2.8c0.8-0.7,2.1-0.6,2.8,0.3l1.5,1.8
				c0.7,0.8,0.6,2.1-0.3,2.8C86.6,77.5,86.1,77.7,85.7,77.7z"/>
		</g>
	</g>
	<g id="Path_58">
		<g>
			<path d="M97.8,84.1c-0.4,0-0.8-0.1-1.2-0.4l-1.9-1.4c-0.9-0.7-1.1-1.9-0.4-2.8c0.7-0.9,1.9-1.1,2.8-0.4l1.9,1.4
				c0.9,0.7,1.1,1.9,0.4,2.8C99.1,83.9,98.4,84.1,97.8,84.1z"/>
		</g>
	</g>
	<g id="Path_59">
		<path class="st0" d="M55.6,81.8c-0.2,0-0.5,0-0.7-0.1c-1-0.4-1.6-1.5-1.2-2.6c0.9-2.4,1.3-4.9,1.3-7.4c0-12.1-9.9-22-22-22
			s-22,9.9-22,22c0,2.5,0.4,5,1.3,7.4c0.4,1-0.2,2.2-1.2,2.6c-1,0.4-2.2-0.2-2.6-1.2c-1-2.8-1.5-5.8-1.5-8.8c0-14.3,11.7-26,26-26
			s26,11.7,26,26c0,3-0.5,6-1.5,8.8C57.2,81.3,56.4,81.8,55.6,81.8z"/>
	</g>
	<g id="Path_60">
		<path class="st0" d="M57,89.7c-1.1,0-2-0.9-2-2c0-12.1-9.9-22-22-22s-22,9.9-22,22c0,1.1-0.9,2-2,2s-2-0.9-2-2
			c0-14.3,11.7-26,26-26s26,11.7,26,26C59,88.8,58.1,89.7,57,89.7z"/>
	</g>
	<g id="Path_61">
		<path class="st0" d="M61.4,81.8c-0.8,0-1.6-0.5-1.9-1.3c-1-2.8-1.5-5.8-1.5-8.8c0-6.9,2.7-13.5,7.6-18.4s11.4-7.6,18.4-7.6
			c0,0,0,0,0,0c14.3,0,26,11.7,26,26c0,2.8-0.5,5.6-1.3,8.3c-0.4,1-1.5,1.6-2.5,1.3c-1-0.4-1.6-1.5-1.3-2.5c0.8-2.3,1.1-4.6,1.1-7
			c0-12.1-9.9-22-22-22c0,0,0,0,0,0c-5.9,0-11.4,2.3-15.6,6.4c-4.2,4.2-6.4,9.7-6.4,15.6c0,2.5,0.4,5,1.3,7.4c0.4,1-0.2,2.2-1.2,2.6
			C61.9,81.8,61.6,81.8,61.4,81.8z"/>
	</g>
	<g id="Path_62">
		<path class="st0" d="M108,89.7c-1.1,0-2-0.9-2-2c0-12.1-9.9-22-22-22s-22,9.9-22,22c0,1.1-0.9,2-2,2s-2-0.9-2-2
			c0-14.3,11.7-26,26-26s26,11.7,26,26C110,88.8,109.1,89.7,108,89.7z"/>
	</g>
	<g id="Path_63">
		<path class="st0" d="M157.6,65.8c-0.2,0-0.5,0-0.7-0.1c-1-0.4-1.6-1.5-1.2-2.6c0.9-2.4,1.3-4.9,1.3-7.4c0-12.1-9.9-22-22-22
			s-22,9.9-22,22c0,2.5,0.4,5,1.3,7.4c0.4,1-0.2,2.2-1.2,2.6c-1,0.4-2.2-0.2-2.6-1.2c-1-2.8-1.5-5.8-1.5-8.8c0-14.3,11.7-26,26-26
			s26,11.7,26,26c0,3-0.5,6-1.5,8.8C159.2,65.3,158.4,65.8,157.6,65.8z"/>
	</g>
	<g id="Path_64">
		<path class="st0" d="M163.4,65.8c-0.8,0-1.6-0.5-1.9-1.3c-1-2.8-1.5-5.8-1.5-8.8c0-6.9,2.7-13.5,7.6-18.4s11.4-7.6,18.4-7.6
			c0,0,0,0,0,0c14.3,0,26,11.7,26,26c0,2.8-0.5,5.6-1.3,8.3c-0.4,1-1.5,1.6-2.5,1.3c-1-0.4-1.6-1.5-1.3-2.5c0.8-2.3,1.1-4.6,1.1-7
			c0-12.1-9.9-22-22-22c0,0,0,0,0,0c-5.9,0-11.4,2.3-15.6,6.4c-4.2,4.2-6.4,9.7-6.4,15.6c0,2.5,0.4,5,1.3,7.4c0.4,1-0.2,2.2-1.2,2.6
			C163.9,65.8,163.6,65.8,163.4,65.8z"/>
	</g>
	<g id="Path_65">
		<g>
			<path d="M136.5,42.7c-0.1,0-0.2,0-0.3,0l-2.3-0.4c-1.1-0.2-1.8-1.2-1.6-2.3c0.2-1.1,1.2-1.8,2.3-1.6l2.3,0.4
				c1.1,0.2,1.8,1.2,1.6,2.3C138.3,42,137.4,42.7,136.5,42.7z"/>
		</g>
	</g>
	<g id="Path_66">
		<g>
			<path d="M146.7,51.1c-0.2,0-0.5,0-0.7-0.1c-1-0.4-1.6-1.5-1.2-2.6l0.8-2.2c0.4-1,1.5-1.6,2.6-1.2c1,0.4,1.6,1.5,1.2,2.6l-0.8,2.2
				C148.3,50.6,147.5,51.1,146.7,51.1z"/>
		</g>
	</g>
	<g id="Path_67">
		<g>
			<path d="M122.3,51.2c-1,0-1.9-0.8-2-1.8l-0.2-2.4c-0.1-1.1,0.7-2.1,1.8-2.2c1.1-0.1,2.1,0.7,2.2,1.8l0.2,2.4
				c0.1,1.1-0.7,2.1-1.8,2.2C122.4,51.2,122.3,51.2,122.3,51.2z"/>
		</g>
	</g>
	<g id="Path_68">
		<g>
			<path d="M128.2,62.5c-0.3,0-0.6-0.1-0.8-0.2l-2.2-1c-1-0.5-1.4-1.6-1-2.7c0.5-1,1.6-1.4,2.7-1l2.2,1c1,0.5,1.4,1.6,1,2.7
				C129.7,62,128.9,62.5,128.2,62.5z"/>
		</g>
	</g>
	<g id="Path_69">
		<g>
			<path d="M124.2,82.5c-0.3,0-0.6-0.1-0.8-0.2l-2.2-1c-1-0.5-1.4-1.6-1-2.7c0.5-1,1.6-1.4,2.7-1l2.2,1c1,0.5,1.4,1.6,1,2.7
				C125.7,82,124.9,82.5,124.2,82.5z"/>
		</g>
	</g>
	<g id="Path_70">
		<g>
			<path d="M141,61.5c-0.7,0-1.3-0.3-1.7-0.9c-0.6-0.9-0.3-2.2,0.6-2.8l2-1.3c0.9-0.6,2.2-0.3,2.8,0.6c0.6,0.9,0.3,2.2-0.6,2.8
				l-2,1.3C141.7,61.4,141.4,61.5,141,61.5z"/>
		</g>
	</g>
	<g id="Path_71">
		<g>
			<path d="M135,76.5c-0.7,0-1.3-0.3-1.7-0.9c-0.6-0.9-0.3-2.2,0.6-2.8l2-1.3c0.9-0.6,2.2-0.3,2.8,0.6c0.6,0.9,0.3,2.2-0.6,2.8
				l-2,1.3C135.7,76.4,135.4,76.5,135,76.5z"/>
		</g>
	</g>
	<g id="Path_72">
		<g>
			<path d="M174.2,49.4c-0.3,0-0.5,0-0.8-0.1l-2.2-0.9c-1-0.4-1.5-1.6-1.1-2.6c0.4-1,1.6-1.5,2.6-1.1l2.2,0.9c1,0.4,1.5,1.6,1.1,2.6
				C175.7,48.9,175,49.4,174.2,49.4z"/>
		</g>
	</g>
	<g id="Path_73">
		<g>
			<path d="M147.9,84.5c-0.4,0-0.9-0.1-1.2-0.4l-1.9-1.4c-0.9-0.7-1-1.9-0.4-2.8c0.7-0.9,1.9-1,2.8-0.4l1.9,1.4
				c0.9,0.7,1,1.9,0.4,2.8C149.1,84.2,148.5,84.5,147.9,84.5z"/>
		</g>
	</g>
	<g id="Path_74">
		<g>
			<path d="M198.2,50.7c-0.4,0-0.9-0.1-1.2-0.4c-0.9-0.7-1-1.9-0.3-2.8l1.5-1.8c0.7-0.9,2-1,2.8-0.3c0.9,0.7,1,1.9,0.3,2.8l-1.5,1.8
				C199.4,50.4,198.8,50.7,198.2,50.7z"/>
		</g>
	</g>
	<g id="Path_75">
		<g>
			<path d="M186.2,43.2c-0.4,0-0.7-0.1-1.1-0.3l-2-1.3c-0.9-0.6-1.2-1.8-0.6-2.8c0.6-0.9,1.8-1.2,2.8-0.6l2,1.3
				c0.9,0.6,1.2,1.8,0.6,2.8C187.5,42.9,186.9,43.2,186.2,43.2z"/>
		</g>
	</g>
	<g id="Path_76">
		<g>
			<path d="M178,60.5c-0.6,0-1.3-0.3-1.7-0.9c-0.6-0.9-0.4-2.2,0.6-2.8l2-1.3c0.9-0.6,2.2-0.4,2.8,0.6c0.6,0.9,0.4,2.2-0.6,2.8
				l-2,1.3C178.8,60.4,178.4,60.5,178,60.5z"/>
		</g>
	</g>
	<g id="Path_77">
		<g>
			<path d="M174,83.5c-0.6,0-1.3-0.3-1.7-0.9c-0.6-0.9-0.4-2.2,0.6-2.8l2-1.3c0.9-0.6,2.2-0.4,2.8,0.6c0.6,0.9,0.4,2.2-0.6,2.8
				l-2,1.3C174.8,83.4,174.4,83.5,174,83.5z"/>
		</g>
	</g>
	<g id="Path_78">
		<g>
			<path d="M194.7,62.7c-0.6,0-1.1-0.2-1.5-0.7l-1.5-1.8c-0.7-0.8-0.6-2.1,0.3-2.8c0.8-0.7,2.1-0.6,2.8,0.3l1.5,1.8
				c0.7,0.8,0.6,2.1-0.3,2.8C195.6,62.5,195.1,62.7,194.7,62.7z"/>
		</g>
	</g>
	<g id="Path_79">
		<g>
			<path d="M187.7,77.7c-0.6,0-1.1-0.2-1.5-0.7l-1.5-1.8c-0.7-0.8-0.6-2.1,0.3-2.8c0.8-0.7,2.1-0.6,2.8,0.3l1.5,1.8
				c0.7,0.8,0.6,2.1-0.3,2.8C188.6,77.5,188.1,77.7,187.7,77.7z"/>
		</g>
	</g>
	<g id="Path_80">
		<g>
			<path d="M199.8,84.1c-0.4,0-0.8-0.1-1.2-0.4l-1.9-1.4c-0.9-0.7-1.1-1.9-0.4-2.8c0.7-0.9,1.9-1.1,2.8-0.4l1.9,1.4
				c0.9,0.7,1.1,1.9,0.4,2.8C201.1,83.9,200.4,84.1,199.8,84.1z"/>
		</g>
	</g>
	<g id="Path_81">
		<path class="st0" d="M157.6,81.8c-0.2,0-0.5,0-0.7-0.1c-1-0.4-1.6-1.5-1.2-2.6c0.9-2.4,1.3-4.9,1.3-7.4c0-12.1-9.9-22-22-22
			s-22,9.9-22,22c0,2.5,0.4,5,1.3,7.4c0.4,1-0.2,2.2-1.2,2.6c-1,0.4-2.2-0.2-2.6-1.2c-1-2.8-1.5-5.8-1.5-8.8c0-14.3,11.7-26,26-26
			s26,11.7,26,26c0,3-0.5,6-1.5,8.8C159.2,81.3,158.4,81.8,157.6,81.8z"/>
	</g>
	<g id="Path_82">
		<path class="st0" d="M159,89.7c-1.1,0-2-0.9-2-2c0-12.1-9.9-22-22-22s-22,9.9-22,22c0,1.1-0.9,2-2,2s-2-0.9-2-2
			c0-14.3,11.7-26,26-26s26,11.7,26,26C161,88.8,160.1,89.7,159,89.7z"/>
	</g>
	<g id="Path_83">
		<path class="st0" d="M163.4,81.8c-0.8,0-1.6-0.5-1.9-1.3c-1-2.8-1.5-5.8-1.5-8.8c0-6.9,2.7-13.5,7.6-18.4s11.4-7.6,18.4-7.6
			c0,0,0,0,0,0c14.3,0,26,11.7,26,26c0,2.8-0.5,5.6-1.3,8.3c-0.4,1-1.5,1.6-2.5,1.3c-1-0.4-1.6-1.5-1.3-2.5c0.8-2.3,1.1-4.6,1.1-7
			c0-12.1-9.9-22-22-22c0,0,0,0,0,0c-5.9,0-11.4,2.3-15.6,6.4c-4.2,4.2-6.4,9.7-6.4,15.6c0,2.5,0.4,5,1.3,7.4c0.4,1-0.2,2.2-1.2,2.6
			C163.9,81.8,163.6,81.8,163.4,81.8z"/>
	</g>
	<g id="Path_84">
		<path class="st0" d="M210,89.7c-1.1,0-2-0.9-2-2c0-12.1-9.9-22-22-22s-22,9.9-22,22c0,1.1-0.9,2-2,2c-1.1,0-2-0.9-2-2
			c0-14.3,11.7-26,26-26c14.3,0,26,11.7,26,26C212,88.8,211.1,89.7,210,89.7z"/>
	</g>
	<g id="Path_85">
		<path d="M209,129.8H10c-5.5,0-10-4.5-10-10v-34h219v34C219,125.4,214.5,129.8,209,129.8z M4,89.8v30c0,3.3,2.7,6,6,6h199
			c3.3,0,6-2.7,6-6v-30H4z"/>
	</g>
</g>
</svg>
