<?xml version="1.0" encoding="utf-8"?>
<!-- Generator: Adobe Illustrator 27.0.0, SVG Export Plug-In . SVG Version: 6.00 Build 0)  -->
<svg version="1.1" id="Layer_1" xmlns="http://www.w3.org/2000/svg" xmlns:xlink="http://www.w3.org/1999/xlink" x="0px" y="0px"
	 viewBox="0 0 177.9 130" style="enable-background:new 0 0 177.9 130;" xml:space="preserve">
<style type="text/css">
	.st0{fill:#FFA14A;}
</style>
<g>
	<g id="Path_38_00000086665298097084243430000017032753758247305346_">
		<path d="M177.9,88h-4V10h4V88z M4,88H0V10h4V88z"/>
	</g>
	<g id="Path_39_00000174596343812176230050000011026756769799472019_">
		<path d="M88.2,27c-43,0-71.5-5.6-81.8-8.1C2.7,18.1,0,14.2,0,9.7C0,4.3,3.7,0,8.2,0h161.5c2.3,0,4.4,1.1,5.9,3
			c1.5,1.8,2.3,4.2,2.3,6.7c0.1,4.5-2.6,8.4-6.4,9.3C160.7,21.4,131,27,88.2,27z M8.2,4C5.9,4,4,6.6,4,9.7v0c0,2.6,1.4,4.9,3.3,5.3
			C17.5,17.4,45.7,23,88.2,23c42.4,0,71.8-5.6,82.4-8c1.9-0.4,3.3-2.7,3.3-5.4c0-1.6-0.5-3.1-1.4-4.2c-0.8-1-1.8-1.5-2.8-1.5
			c0,0,0,0,0,0H8.2z"/>
	</g>
	<path d="M176.7,55h-6.4v-4h6.4V55z M8.4,55H2v-4h6.4V55z"/>
	<g id="Path_85_00000150796172536701640860000006127092037488843410_">
		<path d="M169.5,130H8.5c-4.7,0-8.5-4.5-8.5-10V86h177.9v34C177.9,125.5,174.1,130,169.5,130z M4,90v30c0,3.3,2,6,4.5,6h161
			c2.4,0,4.5-2.7,4.5-6V90H4z"/>
	</g>
	<g id="Path_20_00000119104639268211731220000002861815782465238704_">
		<path d="M36.6,43.5c-0.1,0-0.3,0-0.4,0L33.7,43c-1.1-0.2-1.8-1.3-1.6-2.3c0.2-1.1,1.3-1.8,2.3-1.6l2.5,0.5
			c1.1,0.2,1.8,1.3,1.6,2.3C38.4,42.9,37.5,43.5,36.6,43.5z"/>
	</g>
	<g id="Path_21_00000061468715610905279860000010628982254414337179_">
		<path d="M48.8,52.4c-0.2,0-0.5,0-0.7-0.1c-1-0.4-1.6-1.5-1.2-2.6l0.9-2.4c0.4-1,1.5-1.6,2.6-1.2c1,0.4,1.6,1.5,1.2,2.6l-0.9,2.4
			C50.4,51.9,49.6,52.4,48.8,52.4z"/>
	</g>
	<g id="Path_22_00000026882811834638273070000013127717062692486548_">
		<path d="M22.4,51.6c-1,0-1.9-0.8-2-1.8l-0.2-2.6c-0.1-1.1,0.7-2.1,1.8-2.1c1.1-0.1,2.1,0.7,2.2,1.8l0.2,2.6
			c0.1,1.1-0.7,2.1-1.8,2.1C22.5,51.6,22.5,51.6,22.4,51.6z"/>
	</g>
	<g id="Path_23_00000140710218238078718970000016060867168111217040_">
		<path d="M26.5,72.1c-0.3,0-0.5-0.1-0.8-0.2l-2.3-1c-1-0.4-1.5-1.6-1.1-2.6c0.4-1,1.6-1.5,2.6-1.1l2.3,1c1,0.4,1.5,1.6,1.1,2.6
			C28,71.6,27.2,72.1,26.5,72.1z"/>
	</g>
	<g id="Path_24_00000104676180209068208970000003443046428561545119_">
		<path d="M21.7,84.4c-0.8,0-1.5-0.5-1.8-1.2l-1-2.4c-0.4-1,0-2.2,1.1-2.6c1-0.4,2.2,0,2.6,1.1l1,2.4c0.4,1,0,2.2-1.1,2.6
			C22.3,84.3,22,84.4,21.7,84.4z"/>
	</g>
	<g id="Path_25_00000177459151314878693070000003696776292194225077_">
		<path d="M34.7,81.9c-1,0-1.9-0.7-2-1.8c-0.1-1.1,0.6-2.1,1.7-2.2l2.5-0.3c1.1-0.1,2.1,0.6,2.2,1.7s-0.6,2.1-1.7,2.2L35,81.9
			C34.9,81.9,34.8,81.9,34.7,81.9z"/>
	</g>
	<g id="Path_26_00000093168370572265821050000015638997075439866497_">
		<path d="M40.3,69c-0.7,0-1.3-0.3-1.7-0.9c-0.6-0.9-0.3-2.2,0.6-2.8l2.2-1.4c0.9-0.6,2.2-0.3,2.8,0.6c0.6,0.9,0.3,2.2-0.6,2.8
			l-2.2,1.4C41,68.9,40.6,69,40.3,69z"/>
	</g>
	<g id="Path_27_00000041253342836508811120000005590476476742677664_">
		<path d="M52.1,81.8c-0.4,0-0.9-0.1-1.2-0.4l-2-1.6c-0.9-0.7-1-1.9-0.3-2.8c0.7-0.9,1.9-1,2.8-0.3l2,1.6c0.9,0.7,1,1.9,0.3,2.8
			C53.2,81.6,52.6,81.8,52.1,81.8z"/>
	</g>
	<g id="Path_28_00000117637204367380059710000001475603752563852189_">
		<path d="M77.4,51.7c-0.3,0-0.5,0-0.8-0.2l-2.4-1c-1-0.4-1.5-1.6-1.1-2.6c0.4-1,1.6-1.5,2.6-1.1l2.4,1c1,0.4,1.5,1.6,1.1,2.6
			C79,51.3,78.2,51.7,77.4,51.7z"/>
	</g>
	<g id="Path_29_00000008125072746601976320000017724729293380024204_">
		<path d="M100.3,52.3c-0.4,0-0.9-0.1-1.2-0.4c-0.9-0.7-1-1.9-0.3-2.8l1.6-2c0.7-0.9,1.9-1,2.8-0.3c0.9,0.7,1,1.9,0.3,2.8l-1.6,2
			C101.4,52,100.8,52.3,100.3,52.3z"/>
	</g>
	<g id="Path_30_00000150781477897426179560000007449554206969907105_">
		<path d="M89.3,44c-0.4,0-0.8-0.1-1.1-0.3l-2.2-1.4c-0.9-0.6-1.2-1.8-0.6-2.8c0.6-0.9,1.8-1.2,2.8-0.6l2.2,1.4
			c0.9,0.6,1.2,1.8,0.6,2.8C90.6,43.7,90,44,89.3,44z"/>
	</g>
	<g id="Path_31_00000081643344822629672530000002084475665824376196_">
		<path d="M79.2,70.9c-0.6,0-1.3-0.3-1.7-0.9c-0.6-0.9-0.4-2.2,0.6-2.8l2.1-1.4c0.9-0.6,2.2-0.4,2.8,0.6c0.6,0.9,0.4,2.2-0.6,2.8
			l-2.1,1.4C79.9,70.8,79.6,70.9,79.2,70.9z"/>
	</g>
	<g id="Path_32_00000062181804678831671350000011343585572384902575_">
		<path d="M73.9,84.5c-0.2,0-0.4,0-0.6-0.1c-1.1-0.3-1.7-1.4-1.4-2.5l0.7-2.5c0.3-1.1,1.4-1.7,2.5-1.4c1.1,0.3,1.7,1.4,1.4,2.5
			l-0.7,2.5C75.6,83.9,74.8,84.5,73.9,84.5z"/>
	</g>
	<g id="Path_33_00000096767838988403483460000001686928919854940294_">
		<path d="M88,81.9c-1,0-1.8-0.7-2-1.7c-0.2-1.1,0.6-2.1,1.7-2.3l2.5-0.4c1.1-0.2,2.1,0.6,2.3,1.7c0.2,1.1-0.6,2.1-1.7,2.3l-2.5,0.4
			C88.2,81.9,88.1,81.9,88,81.9z"/>
	</g>
	<g id="Path_34_00000036252709098305607350000005020018020142628004_">
		<path d="M97.2,71.3c-0.6,0-1.2-0.2-1.5-0.7l-1.6-2c-0.7-0.9-0.6-2.1,0.3-2.8c0.9-0.7,2.1-0.6,2.8,0.3l1.6,2
			c0.7,0.9,0.6,2.1-0.3,2.8C98.1,71.2,97.6,71.3,97.2,71.3z"/>
	</g>
	<g id="Path_35_00000031186078095889683840000000934312664712539300_">
		<path d="M105.1,82.8c-0.4,0-0.8-0.1-1.2-0.4l-2.1-1.5c-0.9-0.6-1.1-1.9-0.4-2.8c0.6-0.9,1.9-1.1,2.8-0.4l2.1,1.5
			c0.9,0.6,1.1,1.9,0.4,2.8C106.4,82.5,105.8,82.8,105.1,82.8z"/>
	</g>
	<path class="st0" d="M170,65.3c4.1-14.9-4.7-30.3-19.7-34.4c-14.9-4-30.2,4.7-34.3,19.6c-2.2-7.7-7.6-14.5-15.5-18
		C96.9,30.9,93,30,89.1,30c-12.6,0-23.7,8.4-27,20.6C58,35.7,42.6,26.9,27.7,31C12.8,35,4,50.4,8,65.3c0.4,1.4,0.9,2.9,1.5,4.2
		C7.9,73.2,7.1,77.1,7.1,81c0,1.7,0.2,3.3,0.4,5h4.1c-0.3-1.6-0.5-3.3-0.5-5c0-13.3,10.7-24,24-24c13.3,0,24,10.7,24,24
		c0,1.7-0.2,3.4-0.5,5h7.1c-0.3-1.6-0.5-3.3-0.5-5c0-13.3,10.7-24,24-24c13.3,0,24,10.7,24,24c0,1.7-0.2,3.4-0.5,5h3.5h0.6h2.9
		c-0.3-1.6-0.5-3.3-0.5-5c0-13.3,10.7-24,24-24s24,10.7,24,24c0,1.7-0.2,3.4-0.5,5h4.1c0.3-1.7,0.4-3.3,0.5-5c0-4-0.8-7.9-2.5-11.5
		C169.1,68.2,169.6,66.8,170,65.3z M58.1,65c-8.8-12.7-26.3-15.9-39-7c-2.7,1.9-5.1,4.3-7,7C8.3,52.3,15.5,39,28.2,35.2
		c12.7-3.8,26.1,3.4,29.9,16.1C59.4,55.8,59.4,60.6,58.1,65z M62.1,73.6c-0.4-1.4-0.9-2.8-1.5-4.1c0.6-1.3,1.1-2.7,1.5-4.1
		c0.4,1.4,0.9,2.8,1.5,4.1C62.9,70.9,62.4,72.2,62.1,73.6z M112.1,65c-8.8-12.7-26.3-15.9-39-7c-2.7,1.9-5.1,4.3-7,7
		C62.3,52.3,69.5,39,82.2,35.2c12.7-3.8,26.1,3.4,29.9,16.1C113.4,55.8,113.4,60.6,112.1,65z M116,73.5c-0.4-1.4-0.9-2.7-1.5-4
		c0.6-1.3,1.1-2.6,1.4-4c0.4,1.4,0.9,2.7,1.5,4C116.9,70.8,116.4,72.2,116,73.5z M166,65c-1.9-2.7-4.3-5.1-7-7
		c-12.7-8.8-30.1-5.7-39,7c-1.3-4.5-1.3-9.2,0-13.7c3.8-12.7,17.2-19.9,29.9-16.1C162.6,39,169.8,52.3,166,65z"/>
	<g id="Path_28_00000037683240407961882740000005379542533417612205_">
		<path d="M131.4,51.6c-0.3,0-0.5,0-0.8-0.2l-2.4-1c-1-0.4-1.5-1.6-1.1-2.6c0.4-1,1.6-1.5,2.6-1.1l2.4,1c1,0.4,1.5,1.6,1.1,2.6
			C132.9,51.2,132.2,51.6,131.4,51.6z"/>
	</g>
	<g id="Path_29_00000132802493160010382060000011570073361665950368_">
		<path d="M154.2,52.2c-0.4,0-0.9-0.1-1.2-0.4c-0.9-0.7-1-1.9-0.3-2.8l1.6-2c0.7-0.9,1.9-1,2.8-0.3c0.9,0.7,1,1.9,0.3,2.8l-1.6,2
			C155.4,51.9,154.8,52.2,154.2,52.2z"/>
	</g>
	<g id="Path_30_00000088825251319983000870000009508528550856800413_">
		<path d="M143.3,43.9c-0.4,0-0.8-0.1-1.1-0.3l-2.2-1.4c-0.9-0.6-1.2-1.8-0.6-2.8c0.6-0.9,1.8-1.2,2.8-0.6l2.2,1.4
			c0.9,0.6,1.2,1.8,0.6,2.8C144.6,43.6,144,43.9,143.3,43.9z"/>
	</g>
	<g id="Path_31_00000046304325512474794030000002945672035076321439_">
		<path d="M133.2,70.8c-0.6,0-1.3-0.3-1.7-0.9c-0.6-0.9-0.4-2.2,0.6-2.8l2.1-1.4c0.9-0.6,2.2-0.4,2.8,0.6c0.6,0.9,0.4,2.2-0.6,2.8
			l-2.1,1.4C133.9,70.7,133.5,70.8,133.2,70.8z"/>
	</g>
	<g id="Path_32_00000040551729623047476300000016887773584790307249_">
		<path d="M127.9,84.4c-0.2,0-0.4,0-0.6-0.1c-1.1-0.3-1.7-1.4-1.4-2.5l0.7-2.5c0.3-1.1,1.4-1.7,2.5-1.4c1.1,0.3,1.7,1.4,1.4,2.5
			l-0.7,2.5C129.6,83.8,128.8,84.4,127.9,84.4z"/>
	</g>
	<g id="Path_33_00000134956689572697728760000006260533081827697580_">
		<path d="M142,81.8c-1,0-1.8-0.7-2-1.7c-0.2-1.1,0.6-2.1,1.7-2.3l2.5-0.4c1.1-0.2,2.1,0.6,2.3,1.7c0.2,1.1-0.6,2.1-1.7,2.3
			l-2.5,0.4C142.2,81.8,142.1,81.8,142,81.8z"/>
	</g>
	<g id="Path_34_00000026126336687711599280000006842258896960410026_">
		<path d="M151.1,71.2c-0.6,0-1.2-0.2-1.5-0.7l-1.6-2c-0.7-0.9-0.6-2.1,0.3-2.8c0.9-0.7,2.1-0.6,2.8,0.3l1.6,2
			c0.7,0.9,0.6,2.1-0.3,2.8C152,71.1,151.6,71.2,151.1,71.2z"/>
	</g>
	<g id="Path_35_00000001649463400509918990000014190784973463772296_">
		<path d="M159.1,82.7c-0.4,0-0.8-0.1-1.2-0.4l-2.1-1.5c-0.9-0.6-1.1-1.9-0.4-2.8c0.6-0.9,1.9-1.1,2.8-0.4l2.1,1.5
			c0.9,0.6,1.1,1.9,0.4,2.8C160.3,82.4,159.7,82.7,159.1,82.7z"/>
	</g>
</g>
</svg>
