<svg width="17" height="20" viewBox="0 0 17 20" fill="none" xmlns="http://www.w3.org/2000/svg" role="presentation"><path d="M14.7173 5.07433C14.9717 6.2331 14.8869 7.43709 14.5025 8.55629C14.4573 8.69195 14.4064 8.82761 14.3556 8.96327C13.7564 10.5234 12.9142 11.9591 11.9532 13.3157C11.1336 14.4801 10.2575 15.5994 9.387 16.7299C9.07045 17.1425 8.54477 17.1481 8.21692 16.7468C6.50986 14.6723 4.9328 12.5187 3.73446 10.1051C3.31052 9.2459 2.94876 8.35845 2.78483 7.40882C2.53047 5.92786 2.83571 4.54864 3.61576 3.28247C4.59365 1.70542 6.01808 0.750137 7.84951 0.433595C10.9301 -0.0977434 14.0334 1.99935 14.7173 5.05737C14.7173 5.06867 14.7173 5.07433 14.7173 5.07433ZM11.2749 6.45355C11.2693 5.09129 10.1557 3.97774 8.79913 3.97208C7.43122 3.97208 6.30636 5.10824 6.32332 6.4705C6.33463 7.84407 7.43687 8.93501 8.81044 8.92936C10.1727 8.92936 11.2806 7.82146 11.2749 6.45355Z" fill="#0C0C0C"/><path d="M4.01143 19.1209C3.19747 18.8722 2.41742 18.5556 1.75607 18.0073C1.34344 17.6682 1.03255 17.2555 0.92515 16.7186C0.800794 16.0742 1.0269 15.5372 1.44518 15.0737C1.96522 14.5028 2.63787 14.1636 3.34444 13.8866C3.58184 13.7905 3.81925 13.7114 4.06231 13.6379C4.44103 13.5249 4.81975 13.7227 4.92715 14.0732C5.0402 14.4349 4.84801 14.7967 4.47494 14.9324C4.10188 15.0737 3.7175 15.198 3.35574 15.3676C3.07877 15.4976 2.81875 15.6785 2.57569 15.865C2.15175 16.1985 2.1461 16.5151 2.54177 16.8881C2.98267 17.3008 3.53097 17.5325 4.09057 17.7304C5.19281 18.1147 6.34028 18.2956 7.5047 18.3747C8.56173 18.4482 9.61875 18.4426 10.6758 18.3239C11.9872 18.1826 13.2816 17.9452 14.463 17.3008C14.706 17.1651 14.9378 16.9899 15.1356 16.7977C15.4239 16.5151 15.4239 16.2155 15.113 15.9611C14.8247 15.7181 14.5025 15.5089 14.1634 15.3393C13.8468 15.1754 13.502 15.068 13.1629 14.9493C12.7616 14.808 12.5524 14.4575 12.6655 14.0788C12.7785 13.7114 13.1685 13.5192 13.5699 13.6492C14.4404 13.9262 15.2826 14.2654 15.9665 14.8928C16.317 15.215 16.577 15.5937 16.6675 16.0685C16.7805 16.6281 16.6109 17.1142 16.2774 17.5551C15.9326 18.013 15.4748 18.3239 14.9717 18.5782C13.9656 19.0926 12.8859 19.3865 11.7724 19.5448C11.7611 19.5448 11.7554 19.5448 11.7441 19.5505C9.7205 19.8331 7.66297 19.7992 5.63936 19.477C5.0402 19.3752 4.45798 19.2565 4.01143 19.1209Z" fill="white"/></svg>