<svg xmlns="http://www.w3.org/2000/svg" width="20" height="24" viewBox="0 0 20 24" fill="#ff9330" role="presentation"><path d="M17.1813 5.94083C17.4875 7.33598 17.3855 8.78557 16.9227 10.1331C16.8682 10.2964 16.807 10.4597 16.7457 10.6231C16.0243 12.5014 15.0103 14.23 13.8534 15.8634C12.8665 17.2653 11.8117 18.6128 10.7636 19.974C10.3825 20.4708 9.74958 20.4776 9.35486 19.9944C7.29957 17.4967 5.40081 14.9038 3.95803 11.9978C3.44761 10.9634 3.01205 9.89488 2.81469 8.75154C2.50843 6.96848 2.87594 5.30791 3.81511 3.78346C4.99248 1.8847 6.70748 0.734556 8.91249 0.353443C12.6215 -0.286283 16.3578 2.23859 17.1813 5.92042C17.1813 5.93403 17.1813 5.94083 17.1813 5.94083ZM13.0367 7.6014C13.0299 5.96125 11.6892 4.62055 10.0558 4.61374C8.40888 4.61374 7.05457 5.98167 7.07499 7.62181C7.0886 9.27557 8.41569 10.5891 10.0694 10.5822C11.7096 10.5822 13.0435 9.24835 13.0367 7.6014Z" fill="#ff9330"/><path d="M4.2915 22.8527C3.31149 22.5533 2.37232 22.1722 1.57607 21.512C1.07926 21.1037 0.704954 20.6069 0.575647 19.9604C0.425924 19.1845 0.698148 18.538 1.20176 17.9799C1.82788 17.2926 2.63774 16.8842 3.48844 16.5507C3.77427 16.4351 4.06011 16.3398 4.35275 16.2513C4.80872 16.1152 5.2647 16.3534 5.39401 16.7753C5.53012 17.2109 5.29873 17.6464 4.84956 17.8098C4.40039 17.9799 3.93761 18.1296 3.50205 18.3338C3.16858 18.4903 2.85552 18.7081 2.56288 18.9327C2.05246 19.3342 2.04565 19.7153 2.52205 20.1645C3.05288 20.6613 3.71302 20.9404 4.38678 21.1785C5.71387 21.6413 7.0954 21.8591 8.49735 21.9544C9.77 22.0429 11.0426 22.0361 12.3153 21.8931C13.8942 21.723 15.4527 21.4372 16.875 20.6613C17.1677 20.498 17.4467 20.287 17.6849 20.0556C18.032 19.7153 18.032 19.3547 17.6577 19.0484C17.3106 18.7558 16.9227 18.504 16.5143 18.2998C16.1332 18.1024 15.7181 17.9731 15.3098 17.8302C14.8266 17.6601 14.5747 17.2381 14.7109 16.7821C14.847 16.3398 15.3166 16.1084 15.7998 16.2649C16.8478 16.5984 17.8618 17.0067 18.6853 17.7621C19.1073 18.1501 19.4203 18.606 19.5292 19.1777C19.6653 19.8515 19.4612 20.4367 19.0596 20.9676C18.6445 21.5188 18.0932 21.8931 17.4875 22.1994C16.2761 22.8187 14.9763 23.1726 13.6356 23.3631C13.622 23.3631 13.6152 23.3631 13.6015 23.37C11.1651 23.7102 8.68791 23.6694 6.25151 23.2815C5.53012 23.159 4.82914 23.0161 4.2915 22.8527Z" fill="#ffffff"/></svg>